<?xml version="1.0" standalone="no"?>
<!DOCTYPE svg PUBLIC "-//W3C//DTD SVG 20010904//EN"
 "http://www.w3.org/TR/2001/REC-SVG-20010904/DTD/svg10.dtd">
<svg version="1.0" xmlns="http://www.w3.org/2000/svg"
 width="3264.000000pt" height="3264.000000pt" viewBox="0 0 3264.000000 3264.000000"
 preserveAspectRatio="xMidYMid meet">
<metadata>
Created by potrace 1.14, written by Peter Selinger 2001-2017
</metadata>
<g transform="translate(0.000000,3264.000000) scale(0.100000,-0.100000)"
fill="#000000" stroke="none">
<path d="M16190 31983 c0 -5 -51 -8 -112 -7 -70 1 -119 -3 -127 -10 -11 -8
-13 -8 -7 2 4 7 2 12 -8 12 -8 0 -18 -5 -21 -10 -4 -6 -12 -7 -18 -3 -18 11
-58 13 -52 2 4 -5 -4 -5 -19 1 -17 6 -26 6 -26 -1 0 -6 -7 -6 -20 1 -11 6 -20
7 -20 3 0 -4 -33 -8 -73 -7 -39 0 -82 -3 -94 -7 -13 -5 -25 -4 -29 2 -4 6 -11
5 -22 -3 -13 -11 -14 -11 -8 0 7 11 4 12 -11 3 -14 -7 -24 -7 -33 2 -7 7 -10
7 -7 1 4 -7 -26 -11 -91 -13 -61 -1 -99 -6 -104 -14 -5 -8 -8 -8 -8 -1 0 14
-31 14 -48 1 -10 -8 -16 -7 -23 4 -5 8 -9 9 -9 4 0 -6 -17 -10 -37 -9 -21 1
-43 -2 -50 -7 -7 -7 -14 -6 -18 1 -4 7 -12 7 -25 0 -13 -7 -21 -7 -25 0 -5 8
-11 7 -21 -1 -8 -6 -14 -8 -14 -4 0 4 -6 3 -13 -4 -10 -8 -17 -7 -25 1 -7 7
-12 8 -12 2 0 -5 -11 -11 -25 -12 -14 -1 -25 3 -25 9 0 6 -7 3 -16 -6 -12 -12
-19 -13 -24 -5 -5 8 -10 8 -14 2 -3 -5 -22 -8 -41 -6 -19 1 -37 -1 -40 -7 -4
-5 -14 -5 -27 2 -15 8 -19 8 -13 -1 5 -8 -3 -11 -28 -9 -20 2 -39 0 -42 -3 -4
-4 -14 -4 -23 -1 -11 5 -13 3 -7 -8 6 -11 5 -12 -5 -2 -9 9 -19 9 -33 2 -14
-8 -18 -8 -13 0 5 8 0 8 -16 2 -13 -4 -37 -7 -55 -6 -18 1 -30 -2 -27 -6 2 -4
-10 -6 -28 -5 -18 2 -39 -2 -46 -7 -10 -8 -16 -7 -23 4 -6 9 -9 10 -9 2 0 -7
-7 -10 -15 -7 -8 4 -15 2 -15 -3 0 -4 -17 -8 -37 -7 -21 1 -44 -2 -50 -8 -9
-7 -13 -7 -13 1 0 6 -5 11 -11 11 -5 0 -8 -4 -4 -9 3 -5 -7 -9 -22 -9 -16 1
-39 -2 -52 -7 -18 -6 -22 -4 -15 6 5 9 -2 8 -19 -4 -15 -10 -27 -13 -27 -7 0
6 -5 8 -12 4 -6 -4 -23 -8 -37 -10 -14 -1 -26 -3 -26 -4 0 -1 -50 -8 -102 -13
-13 -1 -23 -6 -23 -12 0 -5 -5 -3 -10 5 -5 8 -10 10 -10 3 0 -6 -8 -10 -17 -8
-10 1 -22 0 -28 -3 -5 -4 -21 -7 -35 -8 -14 -1 -33 -2 -43 -3 -12 -1 -16 -5
-11 -13 6 -10 4 -10 -8 0 -12 10 -18 10 -23 1 -6 -8 -10 -7 -16 2 -7 12 -9 12
-9 0 0 -9 -8 -12 -25 -9 -14 3 -25 2 -25 -3 0 -4 -10 -6 -22 -4 -12 3 -26 1
-32 -4 -6 -5 -27 -11 -46 -12 -19 -2 -38 -8 -42 -14 -5 -6 -8 -5 -8 3 0 8 -5
10 -12 5 -7 -4 -17 -8 -23 -10 -5 -1 -21 -5 -35 -8 -14 -3 -45 -9 -70 -11 -25
-3 -51 -11 -59 -17 -12 -10 -13 -9 -6 3 7 12 6 13 -6 3 -9 -7 -30 -14 -48 -15
-18 -1 -35 -6 -37 -10 -3 -4 -11 -5 -19 -1 -8 3 -15 0 -15 -7 0 -10 -3 -10
-15 0 -12 10 -15 10 -15 0 0 -8 -3 -10 -7 -7 -3 4 -13 1 -21 -6 -13 -10 -14
-9 -7 2 6 11 5 12 -6 5 -8 -5 -17 -9 -21 -10 -5 -1 -9 -3 -10 -4 -2 -1 -14 -4
-28 -6 -78 -11 -94 -15 -108 -26 -13 -11 -14 -10 -7 2 6 12 5 12 -5 3 -7 -6
-19 -9 -26 -6 -8 3 -14 -1 -14 -8 0 -11 -3 -11 -10 1 -7 11 -10 11 -10 2 0 -7
-8 -12 -17 -10 -11 2 -17 -2 -15 -10 2 -10 -2 -10 -17 -2 -15 7 -23 6 -35 -6
-10 -10 -16 -11 -16 -3 0 9 -3 9 -15 -1 -8 -6 -19 -9 -24 -6 -5 4 -12 2 -16
-3 -3 -5 -14 -8 -25 -6 -11 2 -20 1 -20 -3 0 -4 -14 -9 -32 -10 -17 -2 -36 -6
-42 -11 -6 -5 -18 -9 -26 -10 -24 -2 -75 -9 -80 -11 -3 -1 -8 -2 -12 -1 -5 0
-8 -4 -8 -10 0 -5 -4 -7 -10 -4 -5 3 -10 1 -10 -6 0 -10 -3 -10 -12 -1 -15 15
-32 16 -23 2 3 -5 -3 -10 -14 -10 -31 0 -35 -1 -46 -10 -6 -5 -23 -7 -37 -6
-15 2 -26 -1 -25 -7 1 -5 -7 -10 -18 -12 -42 -4 -165 -38 -165 -45 0 -5 -9 -6
-20 -3 -11 3 -20 1 -20 -5 0 -6 -11 -9 -25 -7 -14 1 -25 -2 -25 -7 0 -5 -4 -7
-9 -3 -5 3 -12 1 -16 -5 -9 -15 -27 -12 -20 3 4 6 -1 3 -9 -7 -12 -15 -16 -16
-16 -5 0 12 -2 12 -9 0 -5 -8 -18 -16 -28 -17 -29 -4 -62 -12 -74 -19 -9 -6
-22 -9 -74 -17 -11 -2 -26 -10 -33 -18 -12 -13 -13 -13 -6 0 6 12 5 13 -7 3
-12 -10 -86 -35 -114 -39 -5 0 -23 -7 -40 -14 -16 -7 -38 -12 -48 -12 -10 0
-15 -4 -11 -10 4 -6 3 -8 -3 -5 -6 4 -27 0 -46 -8 -19 -8 -37 -11 -41 -8 -3 4
-6 2 -6 -3 0 -9 -18 -14 -63 -17 -10 -1 -15 -7 -13 -13 3 -8 -2 -11 -14 -9
-11 2 -22 0 -25 -6 -4 -5 -17 -7 -30 -5 -14 3 -24 1 -22 -4 1 -4 -1 -8 -6 -9
-4 0 -23 -7 -41 -15 -26 -11 -36 -11 -40 -3 -2 7 -5 4 -5 -5 -1 -11 -6 -15
-16 -12 -8 4 -15 1 -15 -4 0 -6 -9 -9 -20 -7 -11 2 -20 0 -20 -6 0 -5 -9 -9
-20 -9 -11 0 -20 -5 -20 -11 0 -5 -4 -8 -9 -5 -12 8 -42 -4 -36 -14 2 -4 -6
-5 -19 -3 -13 3 -27 0 -30 -6 -4 -6 -18 -11 -31 -11 -13 0 -25 -4 -27 -10 -2
-5 -14 -11 -27 -13 -14 -2 -27 -9 -29 -16 -3 -9 -8 -9 -17 -1 -10 8 -15 8 -21
-1 -5 -8 -3 -9 6 -4 8 5 11 4 6 -3 -4 -6 -13 -9 -21 -5 -8 3 -15 1 -15 -3 0
-5 -12 -10 -26 -11 -15 0 -30 -7 -35 -15 -5 -7 -9 -9 -9 -4 0 5 -6 3 -13 -3
-8 -6 -17 -8 -20 -4 -4 3 -7 1 -7 -5 0 -7 -3 -11 -7 -10 -15 4 -112 -36 -107
-44 3 -4 -1 -5 -9 -2 -8 3 -22 -2 -31 -11 -10 -11 -16 -12 -16 -4 0 8 -5 7
-17 -3 -10 -9 -24 -13 -30 -11 -7 3 -13 0 -13 -5 0 -11 -35 -25 -62 -25 -10 0
-15 -4 -11 -10 4 -6 -2 -8 -15 -5 -12 4 -20 2 -16 -3 3 -5 -3 -9 -13 -9 -10 0
-27 -7 -37 -15 -10 -8 -23 -12 -28 -9 -4 3 -11 -2 -14 -10 -3 -9 -10 -16 -16
-16 -5 0 -6 6 -3 13 4 6 -1 3 -10 -8 -9 -11 -25 -19 -37 -17 -12 2 -18 -1 -14
-7 4 -6 -2 -8 -14 -6 -11 2 -20 -1 -20 -6 0 -6 -4 -8 -9 -5 -5 3 -12 -1 -15
-10 -3 -8 -10 -13 -15 -10 -5 3 -22 -1 -37 -9 -16 -8 -35 -15 -41 -15 -7 0
-13 -4 -13 -10 0 -5 -3 -9 -7 -9 -20 3 -34 -2 -28 -11 3 -5 0 -7 -8 -4 -8 3
-18 0 -22 -5 -3 -6 -11 -9 -16 -6 -5 4 -9 1 -9 -5 0 -6 -4 -9 -9 -5 -5 3 -15
-1 -23 -8 -7 -8 -21 -13 -31 -11 -9 1 -15 -2 -11 -7 3 -5 -4 -9 -15 -9 -12 0
-21 -5 -21 -11 0 -5 -4 -7 -10 -4 -5 3 -10 1 -10 -5 0 -6 -4 -9 -9 -5 -5 3
-12 1 -16 -5 -4 -6 -11 -8 -16 -5 -5 4 -9 2 -9 -4 0 -6 -8 -8 -17 -4 -10 3
-15 2 -10 -2 9 -11 -51 -37 -66 -28 -6 3 -7 1 -3 -5 4 -7 -3 -14 -19 -18 -14
-3 -25 -11 -25 -18 0 -6 -5 -4 -10 4 -8 13 -10 13 -10 -2 0 -11 -5 -15 -15
-12 -8 4 -15 2 -15 -4 0 -9 -37 -25 -52 -23 -5 1 -8 -4 -8 -10 0 -5 -4 -8 -8
-5 -5 3 -19 -4 -30 -15 -12 -11 -22 -15 -22 -9 0 7 -6 5 -15 -4 -8 -8 -25 -18
-38 -22 -12 -4 -24 -9 -27 -13 -3 -3 -16 -12 -29 -19 -19 -11 -22 -11 -16 0 3
7 -1 4 -9 -6 -9 -11 -16 -16 -16 -12 0 4 -13 -2 -29 -13 -15 -11 -31 -18 -35
-14 -3 3 -6 1 -6 -6 0 -7 -5 -9 -10 -6 -5 3 -10 2 -10 -3 0 -9 -47 -27 -62
-24 -4 1 -5 -5 -1 -14 4 -10 1 -15 -8 -14 -21 3 -59 -11 -59 -22 0 -5 -4 -6
-10 -3 -5 3 -10 1 -10 -5 0 -6 -4 -9 -9 -6 -5 3 -14 -1 -21 -9 -7 -8 -18 -15
-26 -15 -7 0 -19 -6 -26 -13 -14 -14 -17 -16 -48 -24 -11 -3 -20 -9 -20 -14 0
-5 -7 -9 -15 -9 -8 0 -15 -5 -15 -11 0 -5 -4 -7 -10 -4 -5 3 -10 1 -10 -4 0
-6 -3 -10 -7 -9 -5 1 -18 -3 -29 -10 -12 -6 -25 -8 -29 -4 -5 4 -5 2 -2 -4 6
-10 -12 -20 -39 -23 -2 0 -12 -7 -20 -16 -9 -8 -20 -13 -24 -10 -5 3 -15 -3
-21 -14 -7 -10 -18 -17 -26 -14 -7 3 -16 -2 -19 -11 -3 -9 -12 -16 -20 -16 -8
0 -14 -5 -14 -11 0 -5 -4 -8 -9 -5 -5 3 -20 -5 -32 -19 -13 -13 -28 -25 -34
-25 -5 0 -3 5 5 10 10 7 11 10 2 10 -7 0 -15 -6 -18 -14 -3 -8 -16 -17 -30
-20 -13 -4 -24 -11 -24 -16 0 -6 -7 -10 -16 -10 -9 0 -12 -5 -8 -12 4 -6 3 -8
-4 -5 -15 10 -43 -3 -35 -16 4 -6 0 -8 -10 -4 -9 3 -17 3 -19 -1 -4 -10 -95
-63 -104 -61 -4 0 -11 -6 -16 -15 -5 -9 -13 -14 -19 -11 -5 4 -9 1 -9 -5 0 -6
-4 -9 -9 -6 -5 3 -11 -1 -15 -9 -3 -8 -12 -15 -21 -15 -8 0 -15 -5 -15 -11 0
-5 -4 -8 -9 -5 -5 3 -12 -1 -15 -10 -3 -8 -10 -13 -16 -9 -5 3 -15 -3 -21 -14
-7 -10 -19 -17 -26 -14 -7 3 -13 0 -13 -7 0 -6 -4 -9 -9 -6 -5 3 -12 -1 -15
-10 -3 -8 -10 -12 -16 -9 -5 3 -10 2 -10 -3 0 -4 -16 -16 -36 -25 -21 -11 -32
-22 -28 -29 4 -6 3 -8 -4 -4 -6 3 -13 2 -17 -4 -4 -6 -11 -8 -16 -5 -5 4 -9 1
-9 -5 0 -6 -11 -15 -25 -20 -14 -5 -25 -14 -25 -20 0 -5 -3 -9 -7 -9 -20 3
-34 -2 -28 -10 3 -5 1 -12 -5 -16 -5 -3 -10 -1 -10 4 0 6 -9 2 -20 -9 -11 -11
-24 -20 -30 -20 -5 0 -21 -11 -35 -25 -14 -14 -25 -23 -25 -20 0 8 -93 -55
-102 -69 -5 -7 -8 -7 -8 -1 0 6 -7 1 -15 -9 -8 -11 -15 -17 -15 -13 0 4 -9 -1
-19 -10 -38 -35 -51 -44 -51 -36 0 4 -7 -1 -15 -11 -8 -11 -15 -16 -15 -11 0
4 -8 -2 -19 -13 -10 -12 -21 -19 -25 -15 -3 3 -6 1 -6 -6 0 -7 -4 -10 -9 -7
-5 3 -12 -1 -15 -10 -4 -9 -9 -14 -13 -11 -3 4 -14 -3 -24 -15 -11 -11 -19
-18 -19 -15 0 4 -9 -1 -19 -10 -35 -32 -79 -61 -104 -70 -10 -3 -16 -12 -13
-20 3 -8 1 -11 -4 -8 -6 4 -17 0 -25 -7 -33 -30 -45 -38 -45 -32 0 4 -8 -3
-19 -14 -10 -12 -26 -22 -35 -22 -10 0 -15 -4 -11 -9 3 -5 -4 -12 -15 -16 -11
-3 -20 -11 -20 -16 0 -6 -5 -7 -10 -4 -6 3 -10 -1 -10 -10 0 -9 -4 -13 -10
-10 -5 3 -10 1 -10 -4 0 -6 -6 -11 -14 -11 -8 0 -24 -12 -35 -26 -12 -15 -21
-23 -21 -18 0 5 -7 0 -15 -10 -8 -11 -15 -17 -15 -12 0 4 -12 -5 -27 -19 -56
-52 -66 -60 -58 -47 6 11 3 11 -14 0 -12 -7 -21 -19 -21 -26 0 -7 -4 -10 -10
-7 -6 3 -10 -1 -10 -10 0 -9 -4 -14 -8 -11 -5 3 -28 -13 -50 -35 -23 -22 -42
-37 -42 -33 0 4 -9 -3 -20 -16 -11 -13 -20 -20 -20 -16 0 3 -14 -7 -31 -24
-17 -16 -40 -32 -50 -35 -11 -4 -17 -10 -14 -15 2 -4 -9 -13 -25 -20 -16 -7
-27 -16 -24 -21 3 -5 1 -9 -4 -9 -5 0 -22 -11 -38 -25 -16 -14 -33 -25 -37
-25 -5 0 -6 -4 -3 -9 3 -5 -4 -11 -15 -14 -13 -4 -18 -10 -13 -18 4 -8 3 -10
-4 -5 -7 4 -12 2 -12 -5 0 -7 -3 -10 -6 -6 -3 3 -16 -5 -29 -19 -12 -13 -26
-24 -31 -24 -5 0 -15 -9 -22 -20 -7 -11 -19 -20 -28 -20 -8 0 -13 -3 -11 -7 4
-8 -28 -43 -38 -43 -3 0 -10 0 -15 0 -6 0 -9 -3 -8 -7 2 -5 -1 -9 -5 -10 -5
-1 -17 -13 -28 -27 -11 -15 -28 -26 -36 -26 -9 0 -13 -3 -10 -6 8 -8 -36 -44
-53 -44 -6 0 -8 -4 -5 -10 3 -5 1 -10 -5 -10 -6 0 -8 -5 -4 -12 4 -7 3 -8 -5
-4 -6 4 -14 0 -17 -8 -3 -9 -10 -14 -15 -11 -4 3 -13 -4 -19 -15 -6 -11 -17
-20 -25 -20 -8 0 -15 -6 -15 -14 0 -8 -9 -18 -20 -21 -11 -4 -18 -10 -15 -15
5 -8 -23 -25 -37 -22 -5 1 -8 -3 -8 -8 0 -14 -57 -70 -71 -70 -6 0 -7 -4 -4
-10 3 -5 1 -10 -4 -10 -14 0 -51 -37 -51 -50 0 -6 -3 -9 -7 -8 -13 2 -43 -14
-40 -21 2 -3 -7 -16 -20 -28 -13 -12 -23 -20 -23 -18 0 3 -19 -14 -42 -37 -24
-24 -42 -46 -40 -50 1 -5 -2 -8 -7 -8 -5 0 -29 -20 -54 -45 -26 -25 -51 -45
-58 -45 -6 0 -9 -7 -5 -15 3 -8 1 -15 -5 -15 -14 0 -109 -96 -109 -110 0 -6
-4 -8 -10 -5 -5 3 -10 1 -10 -5 0 -6 -4 -8 -10 -5 -5 3 -10 0 -10 -8 0 -8 -7
-18 -16 -21 -8 -3 -12 -10 -9 -16 3 -5 1 -11 -4 -11 -6 -1 -17 -2 -23 -3 -7 0
-14 -7 -14 -13 -1 -7 -2 -18 -3 -25 0 -6 -4 -9 -7 -6 -6 7 -46 -29 -41 -37 4
-7 -37 -34 -46 -28 -4 2 -7 1 -6 -4 4 -20 -2 -32 -19 -37 -10 -3 -26 -20 -36
-36 -9 -17 -22 -28 -27 -24 -5 3 -8 0 -7 -8 2 -7 -4 -12 -12 -10 -8 2 -12 0
-8 -4 5 -4 -7 -20 -25 -36 -17 -16 -32 -33 -32 -38 0 -4 -12 -18 -27 -30 -16
-12 -28 -28 -28 -37 0 -9 -6 -13 -14 -10 -8 3 -18 -5 -25 -19 -6 -13 -15 -24
-21 -24 -5 0 -9 -6 -8 -12 2 -7 -3 -12 -9 -10 -7 1 -13 -3 -13 -9 0 -5 -5 -7
-12 -3 -7 4 -8 3 -4 -4 4 -7 -4 -23 -18 -37 -15 -14 -26 -30 -26 -36 0 -6 -5
-7 -10 -4 -6 3 -10 2 -10 -4 0 -13 -41 -56 -60 -64 -8 -3 -10 -6 -3 -6 6 -1
-8 -21 -32 -45 -24 -24 -41 -47 -38 -49 2 -3 -5 -8 -16 -12 -12 -4 -18 -12
-14 -21 3 -9 0 -14 -8 -12 -8 2 -13 -2 -12 -9 2 -6 -6 -15 -17 -18 -18 -6 -24
-17 -21 -38 0 -4 -3 -6 -8 -5 -5 2 -10 -1 -12 -7 -5 -15 -63 -70 -71 -67 -4 1
-5 -4 -2 -12 3 -7 -2 -16 -11 -20 -9 -3 -13 -10 -10 -16 3 -5 -2 -10 -11 -10
-10 0 -14 -3 -11 -6 4 -4 -1 -14 -11 -23 -10 -9 -28 -31 -41 -49 -12 -18 -27
-29 -33 -26 -6 4 -8 3 -5 -3 3 -5 -6 -23 -21 -40 -15 -17 -34 -41 -42 -54 -8
-13 -27 -36 -42 -51 -14 -15 -24 -28 -22 -28 3 0 -4 -10 -15 -22 -11 -11 -18
-25 -15 -30 3 -5 2 -7 -3 -6 -8 3 -53 -37 -53 -47 1 -13 -44 -64 -52 -59 -5 3
-7 2 -6 -3 4 -15 -13 -53 -22 -48 -4 3 -10 -5 -13 -16 -4 -13 -10 -18 -18 -13
-8 4 -10 3 -5 -4 4 -6 -2 -20 -14 -32 -11 -11 -17 -20 -13 -20 3 0 -4 -9 -17
-20 -13 -11 -19 -20 -15 -20 4 0 -2 -8 -13 -19 -12 -10 -19 -21 -15 -25 3 -3
1 -6 -5 -6 -5 0 -19 -15 -31 -32 -11 -18 -29 -43 -41 -55 -11 -13 -17 -23 -13
-23 4 0 1 -5 -7 -10 -8 -5 -15 -13 -15 -18 0 -5 -8 -16 -17 -26 -10 -10 -18
-24 -18 -32 0 -8 -6 -13 -13 -12 -6 2 -11 -3 -9 -9 1 -7 -3 -13 -9 -13 -5 0
-8 -4 -5 -8 3 -5 -4 -15 -15 -22 -10 -8 -19 -20 -19 -26 0 -7 -7 -15 -16 -18
-9 -4 -14 -9 -11 -12 3 -4 -1 -13 -9 -21 -8 -8 -12 -19 -8 -24 3 -5 2 -8 -3
-7 -4 2 -8 -1 -8 -5 0 -5 -8 -13 -18 -18 -9 -6 -15 -14 -12 -19 3 -4 -2 -11
-11 -14 -9 -4 -14 -13 -10 -22 3 -8 2 -13 -2 -11 -7 5 -30 -16 -35 -30 -1 -5
-6 -7 -10 -5 -5 1 -6 -2 -2 -8 3 -5 1 -10 -5 -10 -6 0 -9 -4 -6 -8 3 -5 -6
-20 -19 -34 -13 -14 -21 -28 -19 -31 3 -3 -4 -11 -16 -17 -12 -6 -19 -17 -17
-24 3 -7 -4 -18 -14 -24 -10 -7 -19 -19 -19 -27 0 -8 -5 -15 -11 -15 -5 0 -8
-4 -5 -9 3 -5 -7 -23 -23 -40 -15 -16 -26 -33 -23 -36 3 -3 0 -5 -7 -5 -7 0
-9 -5 -6 -10 3 -6 0 -13 -9 -16 -9 -3 -12 -12 -9 -21 4 -11 2 -14 -5 -9 -7 4
-12 1 -12 -8 0 -9 -5 -16 -12 -16 -6 0 -9 -3 -5 -6 3 -4 -1 -13 -9 -21 -8 -8
-12 -19 -9 -24 4 -5 -1 -9 -9 -9 -14 0 -20 -12 -17 -32 0 -5 -4 -8 -9 -8 -6 0
-10 -7 -10 -16 0 -9 -5 -12 -12 -8 -8 5 -9 2 -5 -9 3 -10 2 -17 -3 -17 -6 0
-10 -7 -10 -15 0 -8 -9 -20 -19 -27 -11 -6 -17 -18 -13 -26 3 -9 1 -13 -5 -9
-9 6 -21 -15 -27 -48 -1 -5 -7 -9 -14 -8 -7 2 -11 0 -10 -5 2 -4 -8 -25 -21
-47 -14 -22 -24 -43 -23 -47 1 -5 -3 -8 -8 -8 -6 0 -10 -6 -10 -13 0 -7 -8
-22 -18 -33 -10 -11 -17 -25 -14 -32 2 -6 0 -12 -6 -12 -5 0 -17 -16 -28 -35
-10 -19 -22 -35 -26 -35 -4 0 -4 -7 -1 -17 4 -11 3 -14 -5 -9 -11 6 -16 -5
-14 -26 1 -3 -5 -12 -13 -18 -8 -7 -15 -19 -15 -26 0 -8 -4 -14 -9 -14 -5 0
-13 -10 -17 -22 -4 -13 -10 -25 -13 -28 -4 -3 -15 -23 -26 -45 -10 -22 -25
-46 -34 -53 -9 -8 -10 -10 -3 -7 11 6 11 3 0 -14 -7 -12 -17 -21 -21 -21 -5 0
-6 -7 -3 -16 4 -10 2 -13 -6 -8 -8 5 -9 2 -5 -9 3 -10 3 -17 -2 -17 -4 0 -14
-12 -21 -27 -8 -16 -22 -40 -32 -55 -10 -14 -18 -33 -18 -42 0 -8 -8 -20 -17
-25 -10 -6 -14 -11 -9 -11 5 0 3 -7 -4 -15 -7 -8 -9 -15 -6 -15 4 0 1 -7 -6
-15 -37 -41 -39 -45 -26 -45 10 0 10 -2 -1 -9 -7 -5 -10 -14 -7 -20 4 -6 3
-10 -2 -9 -6 2 -10 -1 -11 -5 0 -4 -7 -15 -16 -23 -14 -14 -20 -36 -16 -58 1
-5 -6 -5 -16 -2 -9 4 -15 4 -11 1 8 -9 -11 -65 -23 -65 -5 0 -9 -9 -9 -20 0
-11 -4 -20 -10 -20 -5 0 -10 -7 -10 -15 0 -8 -6 -15 -12 -15 -9 0 -8 -3 2 -10
12 -8 12 -10 -3 -16 -10 -4 -16 -13 -13 -20 3 -8 1 -14 -4 -14 -6 0 -10 -7
-10 -16 0 -8 -4 -12 -10 -9 -6 3 -7 -1 -4 -9 3 -9 2 -16 -4 -16 -5 0 -13 -7
-16 -16 -4 -10 -2 -13 7 -9 6 4 4 0 -6 -8 -10 -9 -18 -18 -18 -21 3 -20 0 -26
-9 -21 -5 3 -7 0 -4 -8 3 -8 -2 -22 -11 -31 -9 -9 -14 -16 -10 -16 3 0 -2 -11
-11 -25 -9 -14 -12 -25 -8 -25 5 0 3 -4 -4 -9 -7 -4 -14 -18 -15 -30 -1 -13
-6 -20 -15 -16 -7 2 -11 1 -8 -3 3 -5 -2 -22 -10 -38 -9 -16 -15 -30 -15 -31
4 -14 -1 -23 -9 -18 -6 3 -7 -1 -4 -10 4 -9 -1 -24 -11 -35 -9 -10 -14 -24
-10 -29 3 -6 -1 -14 -9 -17 -9 -3 -13 -10 -10 -15 3 -5 0 -9 -6 -9 -7 0 -10
-7 -6 -15 3 -8 1 -15 -5 -15 -6 0 -7 -5 -4 -10 3 -6 -1 -13 -9 -16 -9 -3 -13
-10 -10 -15 3 -5 1 -9 -5 -9 -6 0 -8 -7 -5 -15 4 -8 1 -15 -6 -15 -6 0 -9 -4
-5 -9 3 -5 0 -13 -6 -16 -5 -4 -8 -13 -5 -21 3 -7 0 -16 -6 -20 -7 -5 -8 -2
-3 6 5 9 4 11 -4 6 -6 -4 -9 -12 -5 -17 3 -6 -2 -19 -11 -29 -9 -10 -14 -24
-10 -29 3 -6 1 -11 -5 -11 -6 0 -9 -4 -6 -9 3 -5 -1 -14 -10 -21 -8 -7 -13
-19 -10 -27 3 -8 -1 -16 -9 -19 -8 -4 -12 -10 -9 -15 3 -6 1 -15 -4 -22 -6 -7
-11 -15 -11 -19 -1 -5 -13 -34 -26 -65 -14 -31 -28 -67 -31 -80 -4 -13 -10
-26 -15 -29 -5 -3 -9 -16 -9 -30 0 -16 -4 -23 -11 -18 -8 5 -10 -1 -7 -19 3
-15 2 -24 -2 -22 -4 3 -11 -5 -15 -18 -4 -12 -8 -24 -10 -27 -1 -3 -5 -14 -9
-25 -4 -11 -12 -29 -16 -40 -5 -11 -12 -30 -15 -43 -4 -14 -11 -20 -18 -15 -7
4 -6 -1 2 -10 9 -11 10 -17 2 -17 -6 0 -11 -7 -11 -15 0 -8 -5 -15 -11 -15 -5
0 -8 -4 -5 -9 8 -13 -4 -42 -15 -35 -5 3 -7 -1 -4 -8 6 -16 -19 -90 -28 -82
-3 4 -5 -3 -2 -15 2 -11 -1 -21 -7 -21 -5 0 -8 -7 -4 -15 3 -8 1 -15 -5 -15
-6 0 -7 -4 -4 -10 3 -5 1 -10 -5 -10 -6 0 -9 -4 -6 -9 7 -10 -16 -61 -27 -61
-5 0 -5 -5 -2 -10 4 -6 2 -16 -3 -23 -5 -7 -8 -22 -7 -34 1 -16 -2 -20 -10
-13 -8 7 -11 3 -10 -13 1 -12 -2 -28 -8 -34 -5 -7 -7 -13 -3 -13 4 0 -1 -14
-9 -30 -9 -17 -13 -35 -10 -40 3 -6 1 -10 -5 -10 -7 0 -10 -6 -7 -14 3 -8 1
-16 -4 -18 -6 -2 -11 -10 -12 -18 -2 -8 -7 -21 -11 -29 -7 -10 -5 -12 5 -7 10
5 9 3 -1 -6 -9 -7 -15 -20 -15 -28 1 -8 -4 -23 -11 -34 -7 -10 -10 -24 -8 -31
3 -7 1 -16 -5 -20 -6 -3 -11 -15 -11 -26 0 -10 -4 -19 -8 -19 -4 0 -9 -8 -10
-17 -3 -32 -7 -48 -15 -60 -5 -7 -6 -13 -2 -13 3 0 -2 -14 -10 -30 -9 -17 -13
-35 -10 -40 3 -6 1 -10 -5 -10 -7 0 -10 -7 -6 -15 3 -8 0 -15 -5 -15 -6 0 -9
-9 -6 -20 3 -11 1 -20 -5 -20 -6 0 -8 -7 -4 -15 3 -8 1 -15 -5 -15 -6 0 -7 -4
-4 -10 3 -5 1 -10 -6 -10 -7 0 -9 -3 -6 -7 4 -3 1 -13 -6 -21 -9 -13 -9 -14 0
-8 9 5 11 2 7 -8 -3 -9 -9 -16 -13 -16 -3 0 -7 -10 -7 -23 -3 -32 -8 -51 -16
-57 -4 -3 -8 -20 -10 -38 -1 -18 -6 -32 -10 -32 -4 0 -5 -7 -2 -15 4 -8 1 -15
-6 -15 -7 0 -10 -7 -6 -15 3 -8 1 -15 -4 -15 -6 0 -10 -5 -10 -11 0 -5 5 -7
11 -3 6 3 3 -5 -6 -19 -9 -15 -14 -31 -10 -37 3 -5 1 -10 -5 -10 -6 0 -9 -4
-5 -9 3 -5 1 -12 -4 -15 -5 -4 -8 -17 -7 -31 2 -13 -3 -26 -11 -29 -8 -3 -12
-15 -9 -30 2 -13 2 -27 -2 -30 -6 -7 -12 -30 -14 -53 -1 -7 -6 -13 -11 -13 -5
0 -3 -8 4 -17 10 -11 10 -14 1 -9 -7 4 -12 2 -13 -6 -2 -33 -10 -63 -19 -66
-6 -2 -10 -8 -10 -13 0 -6 6 -7 13 -3 8 5 8 2 -2 -9 -7 -9 -10 -17 -7 -17 4 0
2 -9 -4 -20 -6 -11 -13 -33 -15 -48 -6 -46 -9 -56 -25 -70 -8 -8 -9 -11 -3 -7
18 8 12 -35 -6 -55 -10 -10 -10 -15 -2 -18 7 -2 8 -8 3 -15 -11 -14 -22 -59
-26 -105 -2 -19 -7 -37 -13 -40 -6 -4 -9 -15 -7 -24 1 -10 -2 -20 -6 -23 -5
-3 -7 -14 -5 -25 2 -11 0 -20 -5 -20 -5 0 -7 -7 -4 -15 4 -8 1 -15 -6 -15 -10
0 -10 -3 0 -15 9 -11 9 -15 1 -15 -7 0 -9 -4 -6 -10 3 -5 0 -10 -7 -10 -10 0
-10 -2 1 -9 10 -6 10 -10 1 -16 -6 -4 -9 -13 -6 -21 3 -8 0 -14 -7 -14 -8 0
-6 -4 3 -10 12 -8 12 -10 1 -10 -8 0 -11 -3 -8 -6 3 -4 1 -16 -5 -28 -7 -11
-11 -29 -9 -38 1 -10 -3 -26 -8 -37 -8 -14 -8 -21 2 -25 9 -3 8 -8 -4 -18 -9
-7 -14 -19 -11 -27 3 -10 0 -11 -9 -5 -11 6 -12 5 -2 -7 8 -9 9 -20 3 -29 -14
-21 -12 -32 2 -25 7 4 6 1 -2 -7 -8 -7 -14 -24 -12 -37 2 -13 0 -21 -5 -18 -5
3 -7 -7 -5 -24 3 -20 0 -29 -9 -29 -11 0 -11 -2 1 -10 8 -5 10 -10 4 -10 -6 0
-10 -13 -9 -30 1 -16 -2 -30 -6 -30 -4 0 -6 -9 -4 -20 2 -11 0 -22 -5 -25 -4
-3 -6 -15 -2 -27 3 -14 1 -19 -6 -14 -7 4 -9 -2 -6 -19 3 -15 0 -25 -7 -25 -8
0 -8 -4 1 -15 9 -10 9 -15 1 -15 -6 0 -11 -5 -11 -11 0 -5 6 -7 13 -3 8 5 8 2
-2 -9 -7 -9 -10 -17 -7 -17 4 0 2 -8 -3 -18 -7 -13 -6 -23 2 -32 9 -10 9 -11
-1 -6 -7 4 -12 2 -13 -6 -1 -7 -2 -29 -4 -48 -2 -19 -4 -35 -5 -35 -2 0 -4
-18 -9 -73 -1 -7 -5 -10 -11 -7 -6 3 -7 -1 -4 -9 3 -9 11 -13 18 -9 6 3 4 -2
-5 -13 -9 -11 -15 -36 -15 -61 1 -22 -3 -39 -8 -36 -5 3 -7 -6 -4 -20 3 -15 0
-28 -6 -31 -6 -3 -5 -5 3 -5 11 -1 11 -4 1 -16 -7 -9 -10 -18 -7 -21 3 -3 2
-17 -3 -30 -6 -15 -6 -26 1 -30 7 -4 4 -13 -6 -24 -11 -12 -13 -20 -5 -25 5
-3 7 -12 3 -18 -10 -16 -15 -43 -16 -94 -1 -24 -5 -43 -8 -43 -4 0 -7 -12 -7
-27 0 -70 -10 -164 -17 -171 -5 -4 -5 -1 0 7 5 9 4 12 -3 7 -15 -9 -15 -12 4
-30 14 -15 14 -16 -2 -16 -14 0 -15 -3 -6 -12 6 -6 8 -18 3 -27 -5 -9 -7 -26
-6 -38 1 -12 -2 -20 -7 -17 -4 3 -8 0 -8 -5 0 -6 5 -11 11 -11 6 0 7 -5 2 -12
-4 -7 -9 -36 -9 -64 -1 -29 -4 -56 -8 -62 -3 -6 0 -13 6 -15 8 -3 5 -6 -6 -6
-13 -1 -16 -5 -9 -13 11 -15 11 -28 0 -45 -5 -8 -4 -13 3 -13 7 0 8 -6 1 -18
-7 -13 -6 -23 2 -32 9 -10 9 -11 0 -6 -14 8 -14 9 -16 -84 0 -36 -6 -68 -11
-72 -7 -5 -7 -8 2 -8 10 0 10 -5 2 -20 -7 -14 -7 -20 0 -20 6 0 5 -8 -2 -20
-11 -17 -10 -22 2 -30 8 -5 10 -10 4 -10 -7 0 -12 -22 -13 -56 0 -31 -3 -60
-6 -64 -3 -5 0 -12 5 -15 7 -5 5 -12 -7 -22 -10 -8 -12 -11 -5 -8 16 8 13 -26
-3 -37 -6 -5 -4 -8 5 -8 13 0 13 -1 0 -10 -12 -8 -12 -10 -1 -10 11 0 11 -3 1
-15 -10 -12 -10 -15 1 -15 9 0 10 -3 4 -8 -6 -4 -10 -53 -10 -109 0 -57 -4
-103 -9 -103 -5 0 -3 -7 4 -15 7 -9 8 -15 2 -15 -12 0 -10 -33 3 -42 7 -5 6
-8 -1 -8 -12 0 -12 -69 1 -89 5 -9 4 -12 -2 -8 -7 4 -10 -13 -8 -48 1 -34 -2
-55 -9 -55 -7 0 -7 -3 -1 -8 12 -8 14 -162 2 -162 -5 0 -5 -5 -1 -12 9 -14 9
-103 -1 -117 -3 -6 -3 -11 2 -11 4 0 8 -23 8 -50 0 -28 -3 -50 -8 -50 -4 0 -4
-8 1 -17 4 -10 7 -58 7 -108 -1 -49 2 -98 8 -109 6 -13 6 -16 -2 -11 -8 4 -10
-6 -6 -35 3 -23 8 -46 11 -51 3 -5 -1 -9 -8 -9 -10 0 -10 -2 1 -9 11 -7 11 -9
0 -13 -8 -3 -10 -9 -4 -19 14 -21 15 -39 3 -39 -7 0 -7 -5 -1 -12 5 -7 8 -39
8 -70 -1 -32 3 -54 8 -51 5 3 4 -3 -1 -13 -15 -28 -15 -36 0 -45 11 -7 11 -9
-1 -9 -10 0 -11 -3 -2 -14 8 -10 9 -16 1 -21 -7 -4 -7 -12 0 -26 8 -14 7 -19
-2 -19 -9 0 -10 -3 -2 -8 6 -4 11 -14 12 -22 0 -8 1 -45 2 -82 2 -47 6 -66 14
-61 6 4 5 0 -2 -9 -9 -11 -10 -18 -2 -23 6 -4 7 -12 1 -23 -5 -9 -5 -26 0 -39
6 -16 5 -23 -4 -23 -7 0 -8 -3 -2 -8 6 -4 11 -23 12 -42 1 -19 3 -59 5 -87 1
-29 5 -53 8 -53 8 0 5 -44 -5 -60 -5 -8 -4 -11 2 -7 6 4 11 -11 12 -36 1 -23
3 -51 5 -62 2 -11 -2 -26 -8 -34 -9 -12 -8 -13 2 -7 11 6 12 1 9 -23 -3 -17
-2 -31 3 -31 4 0 7 -12 8 -27 0 -93 2 -104 15 -97 8 5 8 2 -2 -9 -7 -9 -9 -17
-5 -17 5 0 9 -16 8 -35 -1 -19 2 -38 8 -41 5 -3 5 -11 -2 -19 -8 -9 -8 -15 0
-20 5 -3 10 -11 10 -16 0 -6 -6 -7 -12 -3 -9 6 -9 3 1 -9 7 -9 11 -24 7 -32
-3 -8 -2 -15 2 -15 4 0 8 -25 10 -56 1 -32 6 -62 9 -68 13 -20 12 -57 0 -49
-7 4 -6 -1 2 -10 8 -10 11 -20 7 -24 -3 -3 1 -17 10 -31 9 -13 11 -21 5 -18
-12 8 -16 -16 -4 -27 6 -7 13 -63 15 -124 0 -18 5 -33 11 -33 6 0 7 -3 4 -6
-3 -4 -2 -15 3 -25 7 -12 6 -19 -3 -22 -8 -4 -8 -6 0 -6 6 -1 9 -10 6 -21 -3
-12 0 -20 7 -20 10 0 10 -3 0 -15 -7 -8 -9 -15 -4 -15 5 0 10 -13 11 -28 3
-42 7 -56 18 -64 6 -5 5 -8 -3 -8 -9 0 -10 -5 -4 -18 5 -9 7 -22 5 -29 -2 -6
0 -14 6 -17 5 -3 7 -15 4 -25 -3 -10 0 -22 6 -25 8 -5 8 -13 0 -28 -8 -15 -8
-19 0 -14 7 5 11 -5 11 -28 0 -19 6 -37 13 -39 9 -4 9 -6 -1 -6 -8 -1 -10 -6
-5 -13 4 -7 8 -17 9 -23 1 -5 5 -26 8 -45 4 -19 9 -55 12 -80 4 -25 11 -51 18
-59 9 -12 8 -13 -4 -6 -13 8 -13 7 -1 -8 8 -10 11 -20 8 -23 -3 -3 1 -24 9
-46 10 -30 11 -44 3 -54 -9 -11 -7 -15 5 -20 9 -3 13 -10 10 -15 -3 -5 -1 -9
4 -9 6 0 9 -14 8 -30 -1 -17 1 -30 4 -30 3 0 5 -14 4 -30 -1 -17 3 -30 8 -30
6 0 8 -7 4 -15 -3 -8 2 -21 10 -30 9 -8 11 -15 5 -15 -7 0 -7 -8 -1 -24 5 -13
6 -27 3 -30 -4 -3 -2 -6 4 -6 6 0 9 -9 6 -20 -3 -12 0 -20 6 -20 7 0 10 -4 6
-9 -3 -5 1 -27 8 -49 7 -21 13 -48 12 -60 -1 -12 3 -22 8 -22 5 0 7 -7 3 -15
-3 -8 -1 -15 5 -15 6 0 7 -5 4 -10 -4 -6 -1 -17 5 -25 10 -12 10 -15 0 -15 -9
0 -7 -7 6 -22 12 -13 13 -18 4 -13 -12 7 -13 6 -4 -6 11 -14 29 -83 27 -106 0
-7 3 -13 8 -13 5 0 6 -7 2 -16 -3 -9 -1 -19 5 -23 5 -3 13 -24 16 -45 4 -22
12 -46 19 -55 9 -12 9 -13 0 -7 -7 4 -13 2 -13 -3 0 -6 8 -11 18 -11 13 0 14
-2 3 -9 -8 -5 -9 -11 -3 -15 6 -3 11 -14 11 -24 1 -38 5 -52 13 -52 4 0 7 -3
7 -7 -5 -30 2 -63 13 -57 7 4 8 3 4 -5 -4 -6 -2 -19 6 -28 11 -14 11 -16 -2
-8 -13 8 -13 6 -2 -8 8 -9 11 -21 7 -27 -3 -5 -1 -10 6 -10 7 0 10 -11 7 -29
-2 -17 0 -29 5 -28 11 2 29 -62 21 -74 -2 -4 0 -9 5 -11 5 -1 11 -16 13 -33 1
-16 6 -32 10 -35 4 -3 10 -17 12 -30 2 -14 5 -27 6 -30 2 -3 2 -8 1 -12 0 -5
3 -8 9 -8 5 0 7 -7 3 -16 -3 -9 -1 -19 5 -23 6 -3 12 -18 14 -33 2 -14 10 -34
18 -44 9 -11 10 -15 2 -10 -6 4 -12 2 -12 -3 0 -6 4 -11 8 -11 5 0 9 -6 10
-12 3 -34 11 -53 21 -51 13 3 10 -19 -4 -29 -6 -5 -5 -8 3 -8 7 0 11 -4 7 -9
-3 -5 -1 -12 5 -16 6 -4 8 -11 5 -16 -4 -5 -1 -9 4 -9 6 0 11 -5 11 -11 0 -5
-5 -7 -11 -4 -6 4 -5 -2 3 -14 7 -12 16 -21 19 -21 4 0 6 -8 6 -18 0 -36 3
-43 15 -36 8 5 7 0 -2 -11 -12 -15 -12 -17 -1 -10 11 6 13 4 8 -8 -3 -10 -2
-17 2 -17 5 0 8 -11 7 -25 -2 -13 1 -22 5 -19 5 3 9 -1 9 -8 0 -7 7 -26 15
-41 8 -15 10 -25 5 -22 -5 3 -3 -7 5 -21 8 -15 12 -31 10 -35 -3 -4 1 -9 9
-12 8 -3 13 -14 11 -24 -1 -10 2 -23 7 -30 5 -7 7 -17 3 -23 -3 -5 -1 -10 5
-10 7 0 10 -7 6 -15 -3 -8 -1 -15 4 -15 12 0 31 -70 23 -83 -3 -6 -1 -7 5 -3
11 7 14 3 16 -26 1 -7 5 -16 9 -19 4 -3 9 -19 11 -34 2 -16 8 -31 14 -33 6 -2
8 -10 5 -18 -3 -8 3 -24 12 -34 10 -11 15 -20 10 -20 -4 0 -2 -6 4 -14 6 -7
12 -25 13 -39 1 -14 6 -23 10 -21 4 3 8 -4 8 -15 0 -12 5 -21 11 -21 5 0 8 -4
5 -9 -4 -5 0 -22 8 -38 20 -38 30 -66 27 -79 0 -6 6 -17 14 -24 8 -7 15 -21
15 -31 0 -11 5 -19 11 -19 5 0 8 -4 5 -8 -3 -5 1 -20 9 -35 7 -14 11 -28 7
-31 -3 -3 0 -6 7 -6 7 0 11 -6 8 -14 -3 -8 -1 -16 4 -18 5 -2 11 -13 12 -26 0
-12 4 -22 8 -22 7 0 23 -38 21 -50 -1 -9 32 -65 43 -72 6 -5 5 -8 -3 -8 -10 0
-9 -4 3 -16 9 -10 14 -25 12 -35 -3 -10 0 -17 7 -16 6 1 10 -6 8 -17 -2 -11 1
-15 7 -11 10 5 16 -15 12 -39 -1 -5 6 -17 15 -27 9 -11 14 -19 10 -19 -4 0 0
-7 8 -16 9 -8 14 -20 11 -25 -4 -5 -1 -9 4 -9 6 0 11 -9 11 -20 0 -11 5 -20
11 -20 5 0 7 -4 4 -10 -3 -5 -2 -10 4 -10 6 0 8 -7 5 -15 -4 -8 -1 -15 5 -15
6 0 11 -6 11 -14 0 -8 9 -31 19 -53 11 -21 25 -53 33 -71 7 -17 16 -32 20 -32
5 0 8 -9 8 -20 0 -11 4 -20 8 -20 5 0 9 -7 10 -15 1 -8 3 -21 4 -29 1 -8 5
-14 9 -13 4 1 8 -1 8 -5 1 -4 15 -33 31 -64 17 -31 28 -60 25 -64 -3 -4 2 -10
10 -14 8 -3 15 -12 15 -21 0 -8 5 -15 10 -15 6 0 10 -5 10 -11 0 -5 -5 -7 -11
-4 -6 4 -5 -2 3 -14 7 -12 16 -21 20 -21 5 0 8 -7 8 -15 0 -8 4 -15 10 -15 5
0 7 -6 4 -13 -2 -7 4 -24 15 -36 12 -13 18 -27 16 -31 -3 -5 0 -10 5 -12 6 -2
12 -13 13 -25 0 -12 5 -19 9 -17 4 3 8 -2 8 -10 0 -9 5 -16 11 -16 5 0 8 -4 4
-9 -3 -5 -1 -12 5 -16 6 -4 8 -10 5 -15 -3 -4 2 -11 11 -14 9 -4 14 -13 10
-21 -3 -8 -2 -15 3 -15 10 0 46 -71 43 -82 -1 -5 3 -8 9 -8 5 0 7 -4 4 -10 -3
-5 -2 -10 4 -10 9 0 27 -40 22 -49 -2 -2 4 -8 13 -13 9 -5 16 -16 16 -23 0 -8
5 -15 11 -15 5 0 8 -4 5 -9 -3 -5 1 -14 9 -21 8 -7 15 -18 15 -25 0 -7 10 -25
22 -41 13 -15 16 -24 9 -19 -9 5 -6 -3 5 -18 10 -15 23 -27 27 -27 5 0 5 -10
2 -21 -5 -14 -3 -19 3 -15 6 3 16 -9 23 -29 7 -19 17 -35 21 -35 4 0 8 -7 8
-16 0 -8 5 -12 10 -9 6 4 9 3 8 -2 -4 -13 23 -73 33 -73 5 0 9 -7 9 -15 0 -8
5 -15 10 -15 6 0 10 -7 10 -15 0 -8 6 -15 13 -15 9 0 9 -2 -1 -9 -11 -7 -10
-9 3 -15 9 -3 14 -10 11 -15 -3 -5 1 -12 10 -15 8 -3 12 -10 9 -16 -3 -5 -1
-10 4 -10 6 0 11 -7 11 -15 0 -7 6 -18 14 -22 8 -4 14 -10 14 -13 -2 -13 14
-50 23 -50 5 0 9 -6 9 -13 0 -7 8 -22 18 -33 9 -11 28 -41 42 -67 13 -26 28
-47 32 -47 5 0 8 -7 8 -15 0 -8 5 -15 11 -15 5 0 7 -4 4 -10 -3 -5 -1 -10 5
-10 6 0 8 -4 5 -10 -3 -5 -1 -10 4 -10 6 0 11 -7 11 -15 0 -8 3 -15 8 -15 4 0
13 -14 20 -30 8 -17 18 -28 23 -24 5 3 9 2 8 -3 -4 -21 2 -34 13 -27 6 4 8 3
5 -3 -4 -6 2 -22 14 -36 11 -15 20 -30 20 -34 1 -4 5 -7 10 -6 5 2 9 -2 9 -7
0 -21 2 -25 17 -42 9 -10 13 -18 10 -18 -3 0 5 -11 18 -25 14 -13 25 -31 25
-40 0 -8 5 -15 10 -15 6 0 10 -7 10 -15 0 -8 7 -15 16 -15 8 0 13 -4 9 -9 -3
-5 1 -16 9 -24 8 -8 12 -17 9 -21 -4 -3 -1 -6 5 -6 7 0 12 -6 12 -13 0 -7 9
-20 20 -30 11 -9 20 -24 20 -32 0 -9 4 -13 10 -10 5 3 10 -1 10 -10 0 -8 6
-18 14 -21 9 -3 12 -12 9 -21 -4 -10 -2 -14 4 -10 6 4 16 -7 23 -23 7 -17 16
-30 21 -30 5 0 9 -6 9 -14 0 -8 11 -24 25 -37 13 -13 25 -28 25 -32 0 -5 6
-15 13 -22 30 -35 37 -45 30 -45 -4 0 0 -5 10 -11 9 -5 17 -16 17 -22 0 -7 9
-19 20 -27 11 -8 20 -20 20 -27 0 -7 5 -13 11 -13 5 0 8 -4 4 -9 -3 -6 4 -15
15 -21 11 -6 18 -15 15 -21 -4 -5 -1 -9 4 -9 6 0 11 -7 11 -16 0 -8 4 -12 10
-9 5 3 10 -3 10 -15 0 -12 3 -19 8 -17 7 5 26 -11 31 -28 7 -22 28 -44 36 -37
5 4 5 2 2 -4 -4 -6 5 -24 18 -38 14 -15 25 -31 25 -37 0 -5 5 -9 10 -9 6 0 10
-6 10 -13 0 -7 9 -20 20 -30 12 -10 18 -22 15 -27 -3 -5 0 -7 7 -5 8 3 18 -7
25 -26 8 -20 16 -28 24 -23 7 4 9 3 5 -4 -3 -6 0 -17 8 -25 8 -8 12 -18 8 -21
-3 -4 2 -4 12 0 14 5 17 4 12 -4 -4 -7 -1 -15 8 -18 9 -3 13 -10 10 -15 -3 -5
0 -9 6 -9 6 0 9 -4 5 -9 -3 -5 4 -12 15 -16 11 -4 18 -11 15 -16 -4 -5 -1 -9
6 -9 7 0 10 -3 7 -6 -3 -3 9 -21 28 -40 19 -19 32 -34 28 -34 -4 0 5 -11 21
-24 17 -15 25 -28 20 -36 -5 -8 -4 -11 3 -6 5 3 20 -10 32 -29 12 -19 26 -35
31 -35 6 0 7 -4 4 -10 -3 -5 1 -10 10 -10 9 0 14 -4 11 -9 -3 -5 1 -11 9 -15
8 -3 20 -17 27 -31 6 -14 18 -25 26 -25 9 0 13 -3 9 -6 -3 -3 4 -17 16 -30 12
-14 31 -35 42 -47 11 -12 19 -25 18 -29 -2 -4 7 -10 19 -13 16 -6 18 -9 7 -16
-11 -7 -10 -9 4 -9 9 0 17 -5 17 -11 0 -5 5 -7 12 -3 6 4 8 3 5 -3 -4 -6 0
-16 8 -23 8 -7 12 -17 8 -24 -3 -6 -3 -8 1 -4 8 6 76 -57 76 -70 0 -4 9 -14
20 -22 11 -8 20 -20 20 -27 0 -6 9 -15 20 -18 11 -3 20 -12 20 -20 0 -7 7 -16
16 -19 8 -3 13 -10 9 -15 -3 -5 4 -12 15 -16 11 -3 20 -11 20 -17 0 -5 21 -30
47 -55 27 -25 47 -49 45 -54 -1 -5 5 -9 15 -9 9 0 13 -3 10 -7 -4 -3 2 -13 13
-20 11 -8 17 -20 14 -26 -4 -7 -4 -9 0 -5 11 9 46 -23 39 -36 -3 -6 -3 -8 2
-4 9 8 35 -15 35 -31 0 -6 4 -11 8 -11 15 0 53 -41 47 -51 -4 -5 4 -9 16 -9
12 0 20 -3 16 -6 -3 -3 12 -22 33 -42 22 -19 37 -39 34 -44 -3 -5 0 -7 8 -6 7
2 12 -3 10 -9 -1 -7 3 -13 8 -13 14 0 120 -106 120 -120 0 -5 4 -10 8 -10 14
0 52 -36 52 -49 0 -6 6 -10 12 -9 7 2 12 -3 10 -10 -1 -6 1 -11 5 -11 18 3 33
-2 31 -9 -4 -10 48 -62 62 -62 6 0 9 -4 6 -8 -3 -5 6 -15 19 -22 13 -7 22 -16
20 -20 -3 -5 2 -11 11 -14 8 -3 12 -11 8 -17 -4 -7 -3 -9 3 -6 12 8 166 -137
156 -147 -5 -4 -3 -7 2 -6 21 5 36 0 30 -10 -3 -5 1 -10 10 -10 9 0 13 -4 10
-10 -3 -5 -1 -10 5 -10 15 0 60 -46 53 -54 -4 -3 0 -6 8 -6 8 0 21 -9 29 -20
8 -11 21 -20 29 -20 8 0 12 -3 8 -6 -7 -8 17 -34 32 -34 6 0 15 -9 21 -20 6
-11 17 -20 25 -20 8 0 15 -6 15 -14 0 -8 9 -18 20 -21 11 -3 20 -11 20 -16 0
-5 7 -9 17 -9 9 0 14 -3 10 -6 -6 -6 16 -34 28 -34 3 0 18 -13 34 -29 15 -16
38 -34 50 -40 12 -7 19 -16 16 -22 -4 -5 1 -9 9 -9 9 0 16 -5 16 -11 0 -5 3
-8 8 -6 10 6 42 -30 34 -39 -4 -4 -2 -4 5 0 6 3 23 -5 36 -18 14 -14 28 -22
31 -19 3 4 6 1 6 -6 0 -16 26 -42 34 -34 3 4 6 1 6 -6 0 -7 4 -9 10 -6 6 3 10
0 10 -8 0 -7 11 -20 25 -27 13 -7 22 -18 18 -23 -3 -6 -2 -7 4 -4 6 4 30 -12
54 -34 24 -22 48 -41 53 -42 6 -1 22 -14 38 -30 15 -15 32 -27 38 -27 5 0 10
-7 10 -16 0 -8 4 -13 9 -10 5 4 23 -7 39 -24 17 -16 34 -30 39 -30 5 0 15 -9
23 -20 8 -11 20 -20 27 -20 7 0 13 -4 13 -10 0 -5 8 -10 18 -10 14 0 15 -2 2
-10 -12 -8 -10 -10 8 -10 13 0 20 -4 17 -10 -3 -6 3 -10 15 -10 12 0 18 -4 15
-10 -3 -5 0 -10 7 -10 7 0 26 -11 42 -25 16 -14 33 -25 38 -25 4 0 8 -7 8 -16
0 -8 4 -12 10 -9 5 3 10 1 10 -5 0 -6 4 -9 8 -6 5 3 15 -4 22 -15 8 -10 20
-19 27 -19 7 0 18 -9 25 -20 7 -11 21 -20 31 -20 10 0 15 -4 12 -10 -3 -5 1
-10 9 -10 9 0 21 -9 28 -20 7 -11 21 -20 31 -20 10 0 15 -4 12 -10 -3 -5 0
-10 7 -10 7 0 25 -10 40 -23 14 -12 36 -29 48 -37 12 -8 28 -20 35 -27 7 -7
15 -9 19 -6 3 4 6 1 6 -5 0 -6 9 -14 20 -17 11 -4 18 -11 15 -16 -4 -5 3 -9
14 -9 11 0 25 -8 30 -17 6 -10 11 -14 11 -10 0 8 13 -1 51 -36 10 -9 23 -17
27 -17 5 0 17 -9 27 -20 10 -12 25 -18 32 -16 7 3 13 -1 13 -9 0 -8 7 -15 15
-15 8 0 15 -4 15 -10 0 -5 7 -10 15 -10 8 0 15 -4 15 -10 0 -5 7 -10 15 -10 9
0 18 -7 21 -15 4 -8 10 -12 15 -9 5 3 9 0 9 -5 0 -6 6 -11 13 -11 7 0 23 -9
35 -20 12 -11 24 -20 27 -20 4 0 13 -7 22 -15 8 -8 18 -13 23 -10 4 3 11 -2
14 -11 3 -8 10 -13 14 -10 5 3 14 -4 22 -14 8 -10 17 -17 22 -14 4 3 11 -2 14
-10 3 -9 15 -16 26 -16 12 0 17 -4 12 -12 -5 -8 -2 -9 9 -5 11 4 17 1 17 -8 0
-9 10 -15 26 -15 14 0 23 -4 19 -9 -3 -5 4 -12 15 -16 11 -4 17 -11 14 -17 -5
-7 -2 -8 6 -3 8 5 18 1 27 -11 8 -10 16 -18 19 -16 7 5 63 -31 59 -38 -2 -3 6
-7 17 -7 12 -1 25 -7 29 -14 4 -7 14 -9 22 -6 12 4 14 2 10 -10 -4 -11 -3 -14
5 -9 7 4 15 1 18 -8 3 -9 10 -13 15 -10 5 3 9 0 9 -6 0 -6 4 -9 9 -6 5 4 11 3
13 -1 4 -10 65 -53 74 -53 3 0 19 -9 35 -21 16 -11 33 -18 38 -14 5 3 13 0 17
-6 5 -8 3 -9 -6 -4 -9 6 -11 4 -6 -4 5 -7 14 -10 22 -7 8 3 17 -1 20 -9 4 -8
12 -15 20 -15 8 0 14 -5 14 -10 0 -6 6 -9 12 -8 7 2 12 -2 11 -9 -2 -7 3 -10
11 -7 7 3 20 -2 29 -10 9 -9 19 -16 24 -16 4 0 19 -9 33 -20 14 -11 32 -20 41
-20 9 0 24 -9 34 -20 10 -11 22 -17 26 -14 5 3 9 0 9 -6 0 -6 5 -8 10 -5 6 3
10 2 10 -3 0 -6 14 -15 30 -21 17 -5 30 -15 30 -20 0 -6 9 -11 20 -11 11 0 20
-5 20 -11 0 -5 4 -8 9 -4 5 3 15 0 23 -7 7 -7 20 -14 28 -16 8 -2 17 -8 18
-13 2 -5 9 -9 17 -9 7 0 18 -6 25 -14 6 -8 18 -12 26 -9 9 3 14 -1 14 -12 0
-10 5 -13 12 -9 6 4 17 -1 25 -12 8 -10 15 -17 16 -15 4 8 47 -10 47 -20 0 -5
3 -8 7 -7 16 4 53 -14 53 -25 0 -7 4 -6 10 3 8 13 10 12 10 -2 0 -11 8 -18 20
-18 11 0 20 -5 20 -11 0 -5 5 -7 10 -4 6 3 10 1 10 -5 0 -7 6 -10 14 -7 8 3
17 -1 20 -9 3 -9 11 -14 18 -12 6 2 20 -4 30 -14 10 -10 23 -16 28 -13 6 4 10
1 10 -6 0 -6 8 -9 20 -6 11 3 18 0 17 -7 -1 -6 4 -10 11 -8 6 1 12 -3 12 -9 0
-5 5 -7 10 -4 5 3 10 1 10 -5 0 -6 5 -8 10 -5 5 3 10 1 10 -5 0 -6 4 -9 9 -6
5 3 20 -3 33 -14 14 -11 28 -16 32 -13 3 3 6 1 6 -5 0 -7 3 -11 8 -11 20 3 32
-2 26 -13 -4 -6 -3 -9 2 -5 11 6 71 -20 99 -43 11 -8 16 -9 11 -3 -4 8 6 6 26
-5 18 -9 35 -20 36 -24 2 -5 12 -8 23 -8 10 0 19 -4 19 -8 0 -4 10 -9 22 -9
13 -1 24 -7 26 -13 2 -5 12 -10 23 -10 10 0 19 -5 19 -10 0 -6 3 -9 8 -9 19 3
33 -2 27 -10 -3 -6 4 -8 15 -6 12 2 23 -2 26 -8 2 -7 17 -14 32 -15 15 -1 29
-7 30 -12 2 -6 12 -10 23 -10 10 0 19 -4 19 -10 0 -5 9 -10 20 -10 11 0 20 -4
20 -9 0 -6 9 -8 20 -6 13 2 20 -2 20 -11 0 -8 5 -12 10 -9 6 4 17 1 25 -5 8
-7 15 -9 15 -5 0 5 8 1 18 -7 9 -9 25 -14 35 -13 9 2 15 -1 11 -6 -3 -5 4 -9
16 -9 12 0 19 -4 15 -9 -3 -6 4 -8 15 -6 11 2 20 -1 20 -6 0 -6 5 -7 10 -4 6
3 10 2 10 -2 0 -5 10 -9 21 -10 12 -1 33 -12 47 -25 14 -13 22 -17 18 -10 -10
16 5 15 30 -3 12 -8 24 -11 28 -8 3 3 6 1 6 -5 0 -7 11 -12 25 -12 14 0 25 -4
25 -9 0 -5 7 -12 16 -15 10 -4 13 -2 8 6 -4 7 9 2 29 -11 20 -12 45 -24 55
-26 20 -4 104 -38 136 -56 13 -8 16 -7 11 1 -8 14 36 -10 47 -25 4 -5 10 -6
14 -2 4 4 13 2 21 -5 7 -6 16 -8 19 -5 4 3 13 -1 21 -9 8 -8 18 -12 23 -9 5 3
11 1 15 -5 4 -6 11 -8 16 -5 5 4 9 1 9 -6 0 -7 3 -10 6 -6 4 3 20 -1 36 -9 16
-8 33 -12 38 -9 6 3 10 1 10 -5 0 -7 5 -10 12 -8 7 3 20 -2 30 -11 9 -8 25
-16 35 -17 36 -4 65 -13 78 -24 6 -5 24 -11 39 -12 14 -1 26 -6 26 -10 0 -4 7
-5 15 -2 8 4 15 1 15 -6 0 -7 7 -10 15 -6 8 3 15 2 15 -2 0 -4 10 -8 22 -9 11
-1 25 -7 29 -14 4 -7 14 -9 22 -6 8 3 23 -1 34 -8 10 -8 28 -15 41 -15 12 0
22 -3 22 -8 0 -4 14 -8 31 -8 17 -1 34 -6 38 -11 3 -6 20 -12 36 -16 17 -3 44
-11 60 -18 17 -7 34 -11 38 -10 4 0 18 -4 30 -11 12 -7 25 -11 29 -10 4 1 26
-6 50 -14 24 -9 50 -17 58 -18 26 -4 75 -18 85 -26 9 -6 23 -8 73 -12 6 -1 12
-5 12 -10 0 -4 12 -8 26 -8 16 0 23 -4 18 -11 -5 -8 -1 -8 14 0 15 8 23 7 33
-5 7 -8 18 -13 25 -10 7 3 16 1 19 -4 4 -6 19 -10 36 -10 16 0 29 -5 29 -11 0
-8 6 -7 17 2 11 10 14 10 9 1 -7 -11 10 -16 52 -15 6 1 12 -3 12 -8 0 -5 12
-9 26 -9 14 0 23 -4 19 -10 -4 -7 3 -7 20 0 20 7 27 6 31 -4 3 -8 13 -12 26
-8 16 4 19 2 13 -9 -8 -12 -6 -12 8 0 11 9 17 10 17 2 0 -6 10 -11 23 -11 13
0 29 -6 36 -12 11 -11 12 -10 6 2 -7 12 -6 13 6 3 8 -7 31 -14 50 -17 19 -2
53 -11 76 -19 28 -9 40 -11 36 -3 -4 6 1 5 10 -3 9 -7 17 -10 17 -6 0 5 9 0
19 -9 13 -12 21 -14 26 -6 5 8 11 8 21 -1 8 -6 14 -8 14 -4 0 4 8 1 17 -6 15
-12 16 -12 8 1 -6 10 -2 9 12 -3 16 -14 22 -15 26 -5 4 10 6 10 6 1 1 -8 16
-13 41 -13 22 0 40 -5 40 -11 0 -5 4 -8 9 -4 5 3 12 2 14 -2 3 -5 27 -8 55 -8
34 0 48 -4 45 -12 -3 -7 3 -10 15 -6 11 2 30 -1 42 -7 17 -9 21 -9 15 0 -6 9
-2 9 15 0 12 -6 28 -9 36 -6 10 4 12 2 8 -6 -5 -8 -2 -9 9 -5 10 4 17 2 17 -5
0 -7 4 -7 13 1 10 8 17 7 25 -1 6 -6 26 -13 44 -14 18 -1 33 -3 33 -4 0 -3 41
-11 62 -12 14 0 20 -5 16 -12 -4 -6 1 -5 10 3 10 8 17 9 17 3 0 -6 8 -11 18
-11 58 -2 102 -6 102 -11 0 -3 10 -7 23 -8 25 -3 62 -10 62 -12 0 -1 14 -3 30
-5 17 -2 44 -6 60 -8 17 -2 36 -7 43 -11 7 -4 12 -5 12 -1 0 3 10 1 21 -6 15
-8 19 -8 15 0 -4 6 -2 11 3 11 6 0 11 -4 11 -8 0 -5 10 -8 23 -7 12 1 27 -1
32 -5 10 -6 35 -10 83 -13 12 0 22 -3 22 -7 0 -3 26 -6 57 -8 31 -2 62 -6 67
-10 17 -10 60 -9 75 2 11 8 13 8 7 -1 -5 -9 0 -13 18 -13 13 0 36 -4 51 -10
17 -7 24 -7 20 0 -4 6 2 7 17 1 13 -5 42 -9 63 -9 22 0 41 -5 43 -11 3 -9 8
-9 18 0 11 9 14 8 14 -2 0 -11 2 -11 10 1 7 11 12 12 18 3 4 -7 16 -10 27 -9
11 2 24 1 29 -2 6 -3 27 -5 48 -5 21 0 38 -4 38 -10 0 -7 4 -7 12 1 8 8 19 8
44 -3 30 -12 32 -12 27 3 -6 14 -4 15 9 4 8 -6 39 -13 69 -15 30 -1 59 -6 66
-10 6 -4 14 -1 16 5 4 10 8 10 15 -1 7 -9 11 -10 17 -2 5 8 11 9 19 2 7 -6 53
-12 103 -14 49 -2 94 -7 99 -10 5 -2 27 -4 49 -3 22 1 48 -1 58 -6 11 -6 17
-5 17 3 0 8 4 8 15 -1 8 -7 15 -9 15 -5 0 4 8 1 17 -6 13 -11 15 -11 9 -1 -6
9 -1 12 18 10 14 -2 28 -6 31 -10 3 -3 23 -2 45 2 24 4 43 3 49 -3 8 -8 11 -7
11 4 0 11 2 11 9 1 6 -10 36 -14 102 -14 52 -1 100 -5 107 -11 8 -6 12 -6 12
1 0 6 9 10 20 9 11 -1 20 -4 20 -7 0 -4 7 -7 15 -7 8 0 12 4 9 9 -7 10 -1 10
29 -1 13 -5 30 -5 37 -1 8 5 19 6 25 2 16 -11 907 -11 929 0 12 7 16 7 12 0
-7 -12 32 -10 52 2 7 4 12 2 12 -6 0 -9 3 -9 10 2 9 13 10 13 10 0 0 -13 1
-13 10 0 6 10 10 11 10 3 0 -8 7 -10 23 -5 12 4 64 7 114 7 51 0 93 4 93 9 0
5 7 3 15 -4 8 -7 15 -8 15 -3 0 5 9 9 20 10 13 1 18 -2 13 -10 -4 -7 -1 -7 10
1 9 8 21 11 27 7 5 -3 10 -1 10 6 0 8 4 8 13 1 8 -7 18 -7 27 -2 8 5 22 4 33
-2 11 -5 17 -6 14 -1 -3 5 27 10 66 12 40 2 88 4 107 4 19 1 38 6 43 12 4 6
10 5 16 -4 7 -11 13 -12 23 -4 7 5 38 11 68 12 30 2 58 8 62 14 6 9 8 9 8 -1
0 -12 38 -11 60 3 5 3 10 1 10 -6 0 -7 5 -8 13 -3 15 11 38 11 56 0 10 -7 12
-6 6 4 -6 10 -4 12 8 7 10 -4 17 -2 17 5 0 7 4 7 14 -1 9 -7 17 -8 20 -2 3 5
19 8 36 7 16 -1 30 3 30 8 0 6 4 5 9 -3 5 -8 11 -9 15 -3 3 5 24 9 46 8 22 -1
40 1 40 5 0 3 12 5 27 3 15 -1 33 2 39 7 8 7 14 6 19 -1 3 -6 11 -7 17 -4 12
7 70 16 111 16 15 0 27 3 27 7 0 3 12 6 28 7 57 1 107 8 119 16 6 5 14 4 18
-2 4 -7 11 -8 18 -1 16 13 79 17 96 7 10 -6 12 -5 7 2 -4 7 -4 12 1 13 85 7
108 11 115 22 6 9 8 8 8 -2 0 -11 3 -12 11 -4 6 6 18 9 25 6 8 -3 14 0 14 7 0
10 3 10 15 0 9 -7 15 -8 15 -2 0 6 11 9 25 7 14 -1 28 2 31 7 3 4 10 5 16 2 6
-4 14 0 19 7 7 12 9 12 9 0 0 -9 4 -10 13 -4 6 6 20 9 30 8 9 -2 17 0 17 5 0
4 14 6 31 4 18 -2 28 0 24 6 -3 6 -1 10 4 10 6 0 11 -6 11 -12 0 -10 2 -10 8
-1 4 7 24 13 45 15 20 1 37 7 37 13 0 5 4 4 9 -3 6 -10 10 -10 20 2 10 11 18
13 31 6 13 -7 21 -7 26 1 3 6 21 9 40 7 22 -3 30 0 24 7 -5 7 7 11 38 12 64 3
77 7 98 23 13 11 16 12 10 1 -7 -10 -3 -11 15 -6 13 5 33 10 44 11 27 4 60 12
60 14 0 1 9 3 20 5 90 15 148 27 169 35 13 5 27 6 30 3 3 -4 6 -2 6 4 0 11 29
11 48 0 8 -5 10 -3 6 6 -3 10 3 15 20 16 58 4 66 6 66 13 0 5 9 4 20 -2 15 -8
18 -8 14 3 -3 10 5 14 32 15 21 1 41 7 45 14 6 9 11 9 23 -1 9 -8 16 -10 16
-5 0 5 11 14 25 21 16 7 25 8 25 1 0 -7 5 -6 13 1 8 6 17 8 20 4 4 -3 7 -1 7
6 0 7 5 9 10 6 6 -4 18 -1 27 7 14 11 16 11 8 -2 -8 -13 -6 -13 7 -2 9 7 30
14 47 14 17 1 31 5 31 11 0 5 7 7 15 4 8 -4 17 -2 20 4 4 5 10 7 15 4 5 -3 11
-1 15 4 3 6 12 8 20 4 8 -3 15 1 15 8 0 7 3 9 7 6 3 -4 13 -1 21 6 13 10 14 9
8 -1 -7 -11 -4 -12 13 -3 12 7 26 9 31 6 5 -3 12 0 17 7 4 7 22 14 38 16 56 5
69 9 73 20 2 6 10 8 18 5 8 -3 20 -1 27 5 6 5 19 9 27 9 21 0 44 7 50 15 5 6
59 19 93 21 9 1 17 5 17 10 0 4 8 7 18 5 10 -1 31 5 46 16 16 10 25 13 22 7
-5 -7 -1 -9 8 -5 9 3 16 10 16 14 0 5 9 7 20 5 11 -2 20 0 20 5 0 4 11 7 25 6
13 -2 22 1 19 6 -3 5 0 8 7 7 8 -2 24 2 37 9 12 7 22 10 22 6 0 -3 8 0 17 7
14 12 15 12 9 0 -6 -8 0 -7 18 4 14 10 26 14 26 10 0 -4 7 -2 15 5 8 6 19 9
25 5 5 -3 10 2 11 12 0 10 3 13 6 6 3 -10 10 -10 24 -2 11 5 25 7 31 3 7 -4 8
-3 4 4 -4 7 -1 13 8 13 9 1 21 3 26 4 6 1 15 3 21 4 5 0 7 6 3 13 -4 7 -3 8 5
4 17 -11 83 13 74 27 -4 7 1 6 10 -2 13 -11 17 -11 17 -1 0 8 3 11 6 7 4 -3
19 0 35 9 16 8 30 14 31 13 8 -2 65 15 75 23 7 5 17 7 23 3 5 -3 10 -1 10 4 0
6 9 11 20 11 11 0 20 5 20 10 0 6 5 10 11 10 5 0 7 -6 4 -13 -4 -6 1 -3 10 8
9 11 19 19 23 17 6 -3 16 0 52 12 3 1 16 8 29 15 15 8 21 9 16 2 -3 -7 8 -3
26 8 18 11 36 18 41 15 4 -3 8 -1 8 5 0 6 6 8 14 5 8 -3 17 0 21 5 3 6 11 9
16 6 5 -4 9 -1 9 6 0 7 10 9 24 7 18 -4 23 -1 19 9 -3 8 -2 13 3 12 5 -1 11 0
14 1 3 1 14 3 25 5 11 2 21 8 23 14 2 5 10 7 17 4 8 -3 22 2 31 11 8 9 20 14
25 11 5 -4 9 -2 9 4 0 6 7 8 15 5 8 -4 15 -1 15 5 0 6 3 10 8 10 22 -4 42 2
37 11 -3 6 1 7 9 4 9 -3 16 -2 16 4 0 6 8 9 18 8 9 -2 20 1 23 6 3 5 12 10 20
12 8 1 31 10 53 19 21 9 42 17 46 17 5 0 11 6 13 13 4 9 6 8 6 -2 1 -10 7 -7
20 8 14 16 21 18 24 9 4 -10 6 -10 6 0 1 6 8 12 16 12 8 0 15 4 15 9 0 4 11 7
25 6 14 -2 23 1 19 6 -3 5 0 10 5 10 17 2 23 4 74 27 27 12 55 22 63 22 8 0
14 4 14 9 0 5 14 11 31 15 17 3 28 10 24 16 -3 6 0 7 9 4 9 -3 16 -1 16 6 0 6
4 9 9 5 5 -3 12 -1 16 5 4 6 11 8 16 5 5 -4 9 -1 9 5 0 6 4 9 9 5 5 -3 17 2
25 11 9 8 16 13 16 9 0 -3 10 0 23 7 12 7 25 11 30 10 4 -1 7 3 7 9 0 6 7 8
16 5 8 -3 12 -2 9 4 -6 10 15 14 44 10 9 -1 12 4 7 15 -3 9 -2 13 3 10 5 -3
12 -1 16 5 4 6 10 8 15 5 5 -3 15 2 24 11 9 8 20 12 26 9 5 -3 10 -1 10 5 0 6
4 9 8 6 5 -3 19 4 31 15 12 12 25 18 28 15 4 -3 18 4 31 16 14 13 22 17 18 11
-4 -7 -3 -13 2 -13 6 0 12 6 15 13 3 7 24 19 46 27 23 7 46 21 51 29 8 13 9
13 10 2 0 -11 4 -10 13 4 8 10 18 16 23 13 12 -8 35 18 26 28 -4 4 -1 4 6 0 7
-4 20 -2 29 6 14 11 16 11 8 -2 -8 -15 33 15 46 33 3 5 9 8 13 8 25 -4 36 0
30 11 -5 8 -2 9 9 5 10 -3 17 -2 17 3 0 6 7 10 15 10 8 0 15 5 15 11 0 5 5 7
10 4 6 -3 10 -1 10 4 0 6 3 10 8 9 4 -1 17 3 28 10 12 6 25 8 29 4 5 -4 5 -2
2 4 -6 11 26 28 46 25 4 -1 7 3 7 9 0 5 7 10 15 10 8 0 15 4 15 10 0 5 6 7 14
4 7 -3 16 2 20 11 3 9 10 13 16 10 5 -3 10 -2 10 4 0 10 29 23 42 18 4 -1 13
7 21 17 8 10 19 16 25 12 6 -3 14 0 19 7 10 17 53 41 53 30 0 -4 5 0 11 10 6
9 14 15 18 12 5 -2 14 2 21 10 7 8 16 13 20 10 4 -3 11 2 14 11 3 8 10 12 16
9 5 -3 10 1 10 10 0 10 5 13 12 9 6 -4 17 1 25 11 7 11 13 15 13 11 0 -5 8 -2
17 5 15 12 16 12 8 -1 -5 -8 4 -3 20 13 15 15 34 27 41 27 8 0 14 4 14 8 0 10
70 38 83 34 5 -1 6 1 4 5 -3 5 1 14 9 21 8 7 14 10 14 6 0 -4 9 1 20 11 11 10
20 14 20 9 0 -5 5 -1 11 9 5 9 17 17 24 17 8 0 15 5 15 11 0 5 5 7 10 4 6 -3
10 -1 10 4 0 6 5 11 12 11 6 0 26 11 45 26 18 14 33 22 33 18 0 -4 8 2 18 13
9 11 23 18 29 16 7 -3 16 2 19 11 3 9 12 16 20 16 8 0 14 5 14 10 0 6 6 10 13
10 7 0 22 8 33 18 10 10 34 24 51 31 18 7 30 18 26 24 -4 6 0 8 10 4 9 -3 17
-3 19 1 4 9 65 52 73 52 7 0 25 15 57 45 11 11 18 14 13 7 -6 -11 -3 -11 13
-1 12 7 18 17 16 21 -3 4 4 8 16 8 11 0 23 7 26 15 4 8 10 12 15 9 5 -3 9 0 9
6 0 6 4 9 8 6 5 -3 14 4 22 14 8 10 17 17 20 15 4 -2 21 9 38 25 18 16 32 26
32 23 0 -3 6 0 13 6 8 6 18 7 22 3 5 -4 5 -2 1 5 -4 7 2 17 14 23 11 6 20 8
20 5 0 -3 10 5 23 19 12 14 29 27 37 28 8 2 17 5 20 8 29 28 62 52 56 40 -4
-8 1 -4 12 9 10 13 24 21 31 17 7 -5 9 -1 4 10 -4 12 -3 15 5 10 6 -4 17 2 24
14 7 11 20 20 29 20 9 0 19 7 23 15 3 8 12 15 20 15 8 0 26 10 40 22 49 45 64
56 70 51 3 -4 6 -1 6 6 0 7 4 9 10 6 6 -4 7 1 3 11 -4 12 -3 15 5 10 6 -4 19
2 29 13 9 11 20 18 25 15 4 -3 8 -1 8 5 0 5 16 19 35 31 19 12 32 27 29 32 -4
7 -2 8 4 4 7 -4 12 -2 12 5 0 7 3 10 6 6 4 -3 12 -1 19 6 7 7 25 21 41 32 15
11 33 26 40 33 7 6 15 12 18 12 6 0 33 21 66 50 61 55 72 63 65 51 -6 -10 -4
-12 4 -7 7 5 10 14 7 21 -3 9 2 11 16 7 17 -4 20 -2 15 11 -4 11 -1 17 8 17 8
0 26 11 40 25 14 14 25 24 25 21 0 -4 22 13 83 66 17 16 37 28 45 28 7 0 11 4
7 9 -3 5 8 18 25 27 16 10 30 22 30 25 0 4 9 11 21 14 11 4 18 9 15 12 -2 3 1
11 7 18 9 10 15 10 26 1 8 -6 12 -6 9 -1 -4 6 0 19 8 30 8 10 14 16 14 12 0
-4 14 6 30 23 17 17 30 28 30 24 0 -3 7 -1 15 6 8 7 12 17 8 23 -3 5 -2 7 4 4
5 -3 35 18 66 48 31 29 57 51 57 49 0 -4 27 21 117 106 17 16 36 30 41 30 5 0
13 7 16 16 3 8 11 12 17 8 8 -4 9 -3 5 4 -4 7 -2 12 4 12 6 0 8 4 5 10 -3 5 0
10 7 10 8 0 20 9 28 19 7 11 17 18 22 15 4 -3 8 2 8 11 0 8 11 20 25 27 13 6
22 16 18 21 -4 6 0 8 10 4 9 -3 16 -3 15 1 -3 9 55 67 65 64 7 -2 11 14 8 31
-1 5 3 6 8 3 5 -4 14 1 19 10 5 9 13 17 18 17 5 1 8 5 7 9 -2 4 6 10 17 13 11
4 18 11 15 16 -4 5 1 9 9 9 9 0 16 7 16 16 0 8 5 12 10 9 6 -3 10 -1 10 5 0 6
5 8 10 5 6 -4 9 -3 8 2 -2 4 22 33 52 63 30 30 54 58 52 62 -1 5 7 8 17 8 11
0 23 5 27 12 5 7 3 8 -7 3 -8 -5 7 12 34 38 26 25 47 51 47 57 0 5 3 9 8 8 11
-4 53 28 45 35 -3 4 -1 7 6 7 7 0 9 5 6 10 -3 6 -1 10 4 10 6 0 30 19 54 43
23 23 46 41 50 39 5 -1 6 2 3 7 -3 5 15 27 40 50 25 23 42 41 38 41 -5 1 2 7
16 15 14 8 22 14 18 15 -4 0 5 12 19 27 14 16 30 27 35 25 5 -1 7 2 3 7 -3 6
4 15 15 21 11 6 18 15 15 21 -4 5 2 9 11 9 10 0 15 3 11 6 -7 7 44 60 55 57 4
-2 10 6 13 17 4 11 11 18 16 14 5 -3 9 -2 8 3 -3 19 2 34 10 29 5 -3 12 1 15
10 3 9 11 12 18 8 8 -5 8 -1 -2 12 -8 10 -10 16 -6 12 9 -8 46 28 46 44 0 5 4
7 9 4 5 -3 16 9 25 27 8 17 16 28 16 24 0 -4 11 3 24 15 13 13 22 26 20 29 -2
4 3 10 12 13 8 3 12 11 9 16 -4 6 -1 9 7 8 7 -2 12 3 10 10 -2 11 11 16 31 13
5 -1 6 3 2 9 -8 13 20 42 30 32 5 -4 5 -2 2 4 -3 6 14 32 38 57 24 26 42 47
38 47 -3 0 9 13 26 29 17 16 31 32 31 36 0 4 11 16 26 27 14 11 23 23 20 25
-7 7 20 33 33 33 6 0 7 7 4 17 -4 11 -3 14 5 9 7 -4 12 -1 12 7 0 8 11 23 25
33 14 10 25 27 25 37 0 10 3 16 8 14 4 -3 13 1 20 9 7 8 10 14 6 14 -4 0 3 8
14 19 12 10 19 21 15 25 -3 3 1 6 10 6 10 0 14 5 11 15 -4 9 0 15 10 15 9 0
16 5 16 11 0 16 26 39 35 31 5 -4 5 -1 1 5 -4 7 2 20 14 30 11 10 20 21 20 26
0 4 15 23 34 42 19 18 32 36 29 39 -2 2 4 13 14 23 35 37 59 69 66 87 4 10 12
14 18 10 7 -4 9 -3 6 3 -4 6 0 16 8 23 8 7 15 17 15 23 0 5 10 20 23 31 12 12
29 33 37 45 8 13 21 29 28 37 6 7 12 17 12 23 0 6 5 11 12 11 6 0 9 3 5 6 -3
3 8 19 24 35 17 16 28 33 25 37 -3 5 4 15 15 22 10 8 19 20 19 26 0 7 7 15 16
18 9 4 14 9 11 12 -3 3 6 18 21 33 15 15 28 34 30 41 2 8 9 18 15 22 7 4 8 8
2 8 -5 0 -2 5 8 11 9 5 17 16 17 23 0 7 11 23 25 36 13 12 23 28 22 34 -1 6 3
10 10 9 8 -2 10 4 6 14 -4 11 -3 14 5 9 8 -5 12 0 12 14 0 12 5 18 10 15 6 -3
10 1 10 9 0 9 5 16 11 16 5 0 8 4 5 9 -3 4 8 21 24 37 16 16 30 37 30 47 0 10
7 20 15 23 8 4 15 12 15 19 0 6 11 24 25 39 14 15 23 32 20 37 -4 5 -1 9 5 9
6 0 15 12 20 26 6 14 14 22 20 19 6 -3 7 1 4 9 -3 9 -1 16 5 16 6 0 11 6 11
13 0 7 9 23 20 35 12 12 17 22 13 22 -4 0 -3 4 2 8 20 14 50 56 35 47 -8 -4
-5 3 8 17 12 13 22 30 22 36 0 7 5 12 11 12 6 0 8 7 5 16 -3 8 -2 13 2 11 4
-3 13 1 20 9 7 8 10 14 6 14 -4 0 1 10 12 22 12 13 13 18 4 13 -13 -8 -13 -6
-1 8 7 9 17 14 22 11 5 -3 9 -2 8 3 -3 12 13 46 28 61 7 8 11 18 8 22 -3 5 4
14 15 20 11 6 18 15 15 21 -4 5 -1 9 5 9 6 0 8 5 5 10 -3 6 -2 10 4 10 5 0 13
10 16 23 4 12 16 32 27 44 11 12 17 26 14 31 -3 6 1 13 10 16 8 3 12 10 9 16
-3 5 -1 10 5 10 6 0 9 4 6 9 -3 5 1 11 9 15 8 3 15 12 15 19 0 8 7 20 15 27 8
7 13 16 10 20 -3 4 2 13 10 20 8 7 15 17 15 23 0 5 8 16 17 24 12 10 13 12 3
8 -10 -4 -10 -2 2 8 14 11 15 16 5 27 -8 8 -8 11 -1 7 7 -4 18 1 25 10 12 14
12 16 -1 8 -11 -6 -10 -3 3 12 9 11 14 23 10 27 -5 4 -3 6 4 4 6 -2 10 0 10 3
-1 4 7 16 17 28 11 12 16 24 13 28 -4 3 2 13 12 22 10 9 17 24 15 34 -1 9 1
15 6 12 4 -3 15 13 24 35 9 22 21 40 28 40 9 0 8 3 -2 10 -8 5 -10 10 -4 10 7
0 19 12 29 26 11 18 13 24 4 19 -8 -4 -4 2 9 14 12 12 20 26 17 32 -4 5 -1 9
5 9 6 0 9 4 5 9 -3 6 2 14 11 19 9 5 15 12 15 15 -3 21 0 27 12 21 8 -5 8 -2
-2 9 -12 15 -11 17 3 17 10 0 15 4 11 9 -3 5 1 16 9 24 8 8 12 17 9 21 -4 3
-1 6 5 6 6 0 9 6 6 13 -3 8 2 20 11 27 9 7 23 30 32 49 9 20 17 38 18 41 2 3
6 15 10 27 4 13 12 20 18 16 6 -4 8 0 4 10 -3 10 -2 17 4 17 6 0 7 5 4 10 -3
6 -1 10 5 10 6 0 8 5 5 10 -3 6 -1 10 5 10 7 0 10 6 7 14 -3 8 1 17 9 20 8 3
13 9 12 13 -3 13 38 94 45 88 4 -3 5 -2 2 2 -3 3 2 17 10 29 11 17 12 24 2 27
-9 4 -9 6 1 6 6 1 12 8 12 16 0 8 4 15 9 15 8 0 22 32 25 55 1 6 7 14 14 18 6
4 12 16 12 27 0 10 6 25 13 32 8 7 13 23 12 36 -1 16 3 21 12 18 8 -3 13 0 12
7 -3 18 22 77 32 77 5 0 9 5 9 11 0 5 -5 7 -11 4 -6 -4 -5 2 3 14 7 12 16 21
21 21 4 0 5 5 2 10 -3 6 -2 10 4 10 5 0 8 11 7 25 -2 13 2 23 8 22 6 -1 10 4
9 11 -2 6 2 12 9 12 6 0 8 3 5 7 -4 3 -2 12 5 20 6 7 8 16 5 20 -4 3 1 12 11
20 9 8 12 12 5 8 -12 -6 -4 15 22 55 5 8 11 24 12 35 2 10 9 23 16 27 6 4 8 8
3 8 -5 0 -3 6 3 13 6 8 8 17 4 20 -3 4 -1 7 5 7 7 0 12 9 12 19 0 11 5 23 10
26 6 4 8 10 5 15 -3 5 0 12 6 15 5 4 8 14 5 22 -3 8 -1 11 4 8 6 -3 10 -3 11
2 0 4 3 17 5 28 3 11 6 25 6 32 1 7 5 10 9 8 6 -4 10 7 24 58 2 4 4 9 5 12 3
6 5 12 15 43 4 12 11 22 16 22 4 0 6 9 4 20 -2 11 0 20 6 20 5 0 9 7 9 15 0 8
4 15 10 15 5 0 7 6 4 14 -3 8 0 17 5 21 6 3 9 11 6 16 -4 5 -2 9 4 9 5 0 8 9
6 20 -2 11 1 20 6 20 6 0 7 5 4 10 -3 6 -1 10 4 10 6 0 11 11 11 25 0 14 5 25
11 25 5 0 7 5 4 10 -3 6 -1 10 5 10 6 0 10 6 9 12 -3 29 2 49 11 43 6 -3 7 1
4 9 -3 9 -2 16 4 16 6 0 9 11 7 25 -1 14 0 23 3 20 7 -7 32 66 27 76 -3 4 2 9
10 12 8 4 12 15 10 27 -2 12 0 18 6 14 7 -4 9 1 7 12 -2 11 3 25 12 32 8 8 9
11 3 7 -7 -3 -13 -1 -13 4 0 6 4 11 9 11 5 0 12 7 15 16 4 10 2 13 -7 8 -9 -5
-9 -4 1 7 6 7 12 21 12 32 0 10 4 16 9 12 6 -3 8 4 6 15 -2 11 1 20 6 20 6 0
8 4 5 9 -3 5 0 14 8 20 8 7 12 21 9 31 -3 13 0 20 8 20 11 0 11 2 -1 10 -12 8
-12 10 -1 10 8 0 11 3 8 7 -4 3 -2 12 4 20 6 7 8 13 3 13 -5 0 -4 4 3 8 12 8
24 49 27 90 0 12 4 22 9 22 4 0 7 7 7 15 0 8 6 15 13 15 8 0 7 4 -3 10 -11 7
-11 10 -2 10 7 0 11 4 7 9 -3 5 -1 12 5 16 5 3 10 17 10 31 0 14 4 22 10 19 5
-3 7 0 4 8 -3 8 2 31 10 52 9 20 13 41 10 46 -3 5 0 9 6 9 6 0 9 4 6 9 -4 5 0
12 6 14 10 4 10 6 0 6 -10 1 -10 5 2 16 8 9 13 22 10 29 -3 8 0 17 5 21 6 3 9
10 6 15 -3 5 -1 11 5 15 15 9 12 28 -2 19 -7 -4 -5 2 5 14 11 11 16 26 12 31
-3 6 -2 11 3 11 5 0 9 6 10 13 3 38 15 83 24 88 6 4 8 11 4 17 -3 6 0 13 6 15
10 4 10 6 0 6 -10 1 -10 5 2 16 8 9 13 22 10 30 -4 8 -2 15 4 15 6 0 8 9 5 20
-3 11 -1 20 5 20 5 0 9 8 9 18 -1 9 5 37 13 62 7 25 14 52 14 61 1 9 8 24 16
34 9 11 10 16 3 11 -7 -4 -13 -2 -13 3 0 6 4 11 8 11 8 0 12 14 13 53 0 9 5
17 10 17 6 0 8 4 4 9 -3 5 -1 12 3 15 5 3 8 17 7 31 -2 14 1 25 6 25 6 0 8 4
4 9 -3 5 0 13 6 17 8 5 7 9 -2 14 -10 7 -10 12 1 25 12 14 17 36 23 101 1 12
7 19 14 17 13 -5 12 29 -2 39 -6 5 -5 8 3 8 7 0 10 4 7 10 -3 5 -2 10 4 10 5
0 8 9 6 20 -2 11 1 22 6 26 6 3 5 12 -3 22 -7 9 -8 13 -2 9 11 -7 24 33 25 76
0 9 3 15 7 13 4 -2 7 16 7 41 -1 30 4 47 13 51 11 4 11 6 0 13 -10 7 -11 9 0
9 7 0 11 4 7 9 -3 5 -1 13 5 16 8 5 7 12 -2 23 -11 13 -11 14 1 7 11 -6 13 -4
8 8 -3 8 1 21 8 27 11 9 12 17 4 31 -6 12 -6 19 0 19 5 0 8 9 6 20 -2 11 1 22
6 25 5 4 7 11 4 16 -4 5 -3 15 2 22 4 6 9 26 10 42 5 56 6 60 17 67 7 5 6 8
-3 8 -9 0 -10 4 -4 13 6 6 10 26 9 44 0 17 3 29 8 26 5 -3 7 6 4 21 -3 14 -2
26 3 26 4 0 6 9 4 20 -2 11 0 20 6 20 5 0 7 11 5 25 -3 15 0 25 7 25 7 0 6 4
-3 10 -10 6 -11 10 -2 10 8 0 12 16 12 46 0 25 4 43 8 40 5 -3 9 1 9 9 0 8 -5
12 -10 8 -5 -3 -4 3 1 14 6 10 9 31 8 46 -2 14 1 24 5 21 5 -2 7 12 5 32 -1
20 3 42 10 49 10 9 10 15 1 24 -8 8 -8 11 2 11 8 0 11 6 7 16 -3 8 -1 25 5 36
9 16 8 19 -3 12 -10 -6 -11 -5 -2 7 6 8 10 24 9 37 -1 12 1 22 5 22 4 0 6 10
5 23 -1 12 3 25 9 29 7 5 6 8 -3 8 -9 0 -10 4 -4 13 11 14 11 47 0 65 -5 7 -2
14 8 18 9 4 14 13 11 20 -3 8 0 14 7 14 8 0 8 3 -2 9 -8 5 -10 14 -6 22 5 7 9
24 11 38 1 14 3 28 4 31 1 3 3 19 5 35 1 17 3 32 5 35 1 3 3 28 4 55 1 28 5
56 9 63 5 7 3 12 -5 12 -8 0 -6 5 5 11 13 7 15 14 8 23 -6 7 -6 17 -1 26 5 8
5 21 -1 32 -7 12 -6 18 2 18 7 0 9 10 7 25 -3 14 -2 25 1 25 3 0 7 11 7 25 1
14 -2 22 -7 19 -14 -8 -10 3 7 20 10 10 11 16 3 16 -9 0 -8 4 1 15 9 11 9 15
1 15 -7 0 -9 5 -4 13 4 6 8 23 9 37 1 14 3 46 5 71 1 25 -1 51 -6 59 -5 8 -4
11 2 7 6 -4 14 1 17 10 4 9 1 20 -6 25 -10 6 -10 8 2 8 13 0 13 1 0 10 -8 5
-10 10 -4 10 6 0 10 23 10 55 -1 30 1 55 4 55 3 0 5 23 4 50 -1 30 3 50 9 50
8 0 8 3 0 11 -8 8 -8 20 -3 35 6 16 6 24 -1 24 -6 0 -6 6 0 18 14 26 14 34 -1
43 -11 7 -11 9 0 9 9 0 11 7 7 21 -4 12 -3 19 1 16 5 -3 9 45 8 106 0 62 3
119 7 128 4 8 4 21 -1 29 -5 8 -4 22 1 32 7 12 6 18 -1 18 -6 0 -8 5 -4 12 12
19 11 78 -1 78 -6 0 -6 3 1 8 15 10 16 802 0 802 -8 0 -8 3 0 8 13 9 13 102
-1 102 -5 0 -3 5 5 10 11 7 11 10 2 10 -10 0 -10 5 -2 20 7 14 7 20 0 20 -5 0
-10 5 -10 11 0 5 5 7 12 3 7 -5 8 -3 3 6 -5 8 -9 50 -11 94 -2 101 -2 98 -16
91 -7 -4 -5 0 5 8 18 15 18 15 0 20 -17 4 -17 5 0 6 15 1 16 5 7 21 -8 15 -8
20 2 20 6 0 3 7 -8 16 -10 8 -14 13 -8 10 8 -4 10 9 7 42 -9 103 -9 117 1 124
7 5 7 8 -1 8 -7 0 -13 7 -13 16 0 9 5 13 13 9 6 -4 5 -1 -3 7 -11 9 -15 35
-16 88 -1 41 -5 84 -10 94 -5 14 -4 17 5 11 10 -6 11 -3 1 15 -7 12 -10 33 -7
46 2 14 1 27 -4 30 -4 2 -6 11 -2 19 3 9 0 22 -6 29 -8 9 -8 16 -2 20 6 4 6
18 1 36 -5 18 -5 32 1 36 6 4 6 10 0 18 -7 9 -7 17 2 26 10 10 9 11 -2 5 -11
-6 -13 -4 -8 8 4 10 1 17 -6 17 -8 0 -6 4 3 10 14 9 7 15 -14 11 -5 -1 -4 4 3
13 8 10 9 16 1 21 -8 5 -8 10 0 20 6 7 7 16 2 19 -5 3 -8 21 -7 41 1 19 -2 38
-8 42 -5 3 -3 9 4 14 8 5 9 9 3 9 -6 0 -10 11 -9 25 2 14 -2 25 -8 25 -8 0 -8
3 -2 8 12 8 13 32 2 48 -4 7 -5 26 -3 43 2 17 0 34 -5 37 -4 2 -5 12 -2 21 4
9 2 14 -3 11 -5 -4 -10 13 -10 35 -4 89 -9 127 -18 127 -6 0 -5 5 1 11 12 12
6 42 -6 35 -3 -2 -5 20 -5 50 1 30 -2 54 -5 54 -4 0 -7 22 -7 49 1 27 -2 47
-6 45 -4 -2 -9 0 -12 5 -4 5 -2 13 4 16 7 4 7 12 2 18 -5 7 -9 21 -10 32 -1
30 -10 73 -16 84 -4 5 -1 13 5 17 8 5 8 8 -1 14 -6 4 -12 21 -12 38 -1 18 -6
32 -12 32 -7 0 -7 3 -1 8 12 9 19 36 7 28 -5 -3 -10 7 -10 22 -2 37 -6 55 -15
70 -5 7 -3 12 3 12 7 0 5 7 -4 16 -18 18 -21 28 -5 18 8 -4 9 1 3 17 -4 13 -8
35 -9 47 -1 13 -8 28 -16 33 -9 6 -10 9 -2 9 9 0 10 7 3 26 -6 14 -8 30 -4 35
3 5 1 9 -4 9 -6 0 -8 9 -5 20 3 13 0 20 -8 20 -11 0 -11 2 1 10 11 7 11 10 2
10 -7 0 -10 5 -7 10 4 6 3 16 -2 23 -5 7 -10 25 -11 41 -1 16 -8 36 -15 44 -9
13 -9 14 1 8 6 -4 12 -2 12 3 0 6 -4 11 -10 11 -5 0 -10 10 -10 23 0 41 -3 57
-13 57 -5 0 -5 6 2 13 6 8 7 17 1 23 -9 9 -20 51 -24 91 -2 13 -6 26 -9 30
-12 11 -8 24 6 18 6 -4 5 -1 -4 7 -9 7 -15 23 -14 36 1 12 -1 22 -4 22 -4 0
-8 12 -9 27 -1 15 -7 30 -13 34 -8 4 -7 8 2 12 9 4 10 6 2 6 -7 1 -10 8 -7 16
4 9 0 15 -7 15 -11 0 -11 2 0 9 13 8 13 12 0 27 -8 9 -13 25 -11 36 2 10 -2
18 -8 18 -7 0 -9 7 -6 16 4 9 1 24 -6 32 -11 13 -11 14 2 7 9 -5 7 1 -5 15
-12 14 -14 20 -5 15 13 -8 13 -6 2 8 -8 9 -11 21 -8 26 4 5 2 12 -4 16 -6 4
-8 11 -5 16 4 5 2 9 -4 9 -5 0 -8 9 -6 20 2 11 0 20 -5 20 -5 0 -7 7 -4 15 4
9 0 15 -7 15 -11 0 -11 2 0 9 12 8 12 12 -2 26 -19 19 -23 40 -5 29 6 -4 4 3
-5 17 -9 13 -17 33 -17 44 0 12 -5 26 -12 33 -9 9 -9 12 2 12 11 0 12 2 3 8
-7 4 -14 17 -16 27 -2 11 -7 28 -11 37 -5 10 -6 23 -4 30 3 7 -2 19 -11 26
-13 11 -13 12 -1 6 12 -6 13 -4 3 7 -7 7 -13 23 -13 36 0 13 -4 23 -8 23 -4 0
-9 11 -10 25 -3 47 -5 54 -17 59 -7 2 -11 19 -9 40 1 20 -2 34 -7 30 -8 -4
-14 25 -10 49 0 4 -3 7 -9 7 -5 0 -7 7 -4 15 4 8 1 15 -5 15 -6 0 -8 7 -5 15
4 8 1 15 -6 15 -6 0 -8 5 -5 10 4 6 1 18 -7 27 -11 14 -11 16 2 9 8 -4 6 0 -4
8 -12 9 -14 16 -7 16 9 0 8 5 -3 16 -18 18 -21 28 -5 19 7 -5 7 -2 0 11 -15
30 -24 58 -22 72 1 6 -3 12 -9 12 -5 0 -10 11 -10 24 0 14 -5 28 -10 31 -6 4
-8 11 -4 16 3 5 -2 21 -11 36 -10 15 -12 22 -4 18 7 -5 6 1 -4 14 -8 13 -13
30 -10 37 3 8 0 14 -6 14 -6 0 -11 9 -11 21 0 11 -3 18 -7 16 -7 -5 -12 16
-16 70 -1 11 -5 19 -8 17 -3 -1 -12 19 -19 46 -8 28 -17 50 -21 50 -4 0 -6 9
-4 20 2 11 -1 20 -6 20 -6 0 -7 5 -4 10 3 6 -4 24 -16 42 -13 17 -17 28 -9 23
9 -5 5 6 -8 29 -12 20 -17 34 -12 31 6 -4 1 10 -10 30 -11 20 -18 41 -15 46 4
5 -1 12 -10 15 -13 5 -13 9 -3 23 7 9 8 13 4 9 -5 -5 -14 2 -21 15 -8 15 -8
24 -1 29 7 5 7 8 -1 8 -7 0 -13 7 -13 16 0 8 -4 13 -9 10 -5 -4 -8 2 -6 11 1
10 -4 28 -11 41 -11 17 -12 22 -2 22 8 0 6 5 -4 11 -9 5 -15 15 -12 23 3 7 -2
19 -10 26 -9 7 -13 16 -10 21 3 5 1 9 -4 9 -6 0 -13 7 -16 16 -4 10 -2 13 6 8
6 -4 4 3 -5 17 -9 13 -17 31 -17 41 0 10 -4 18 -10 18 -5 0 -9 3 -9 8 4 24 -2
42 -13 36 -8 -5 -9 -2 -5 9 3 9 2 19 -4 22 -5 4 -7 11 -4 16 4 5 1 9 -5 9 -6
0 -8 5 -5 10 3 6 0 10 -7 10 -11 0 -10 2 0 9 11 7 10 10 -3 15 -9 3 -15 12
-13 18 3 7 -2 19 -9 27 -8 7 -12 21 -11 30 2 9 -2 21 -10 26 -7 6 -14 20 -15
33 0 12 -4 22 -7 22 -8 0 -34 66 -31 76 2 4 -1 10 -6 13 -14 10 -36 54 -23 46
7 -4 7 1 -2 14 -7 12 -16 21 -21 21 -4 0 -5 5 -2 10 4 6 1 17 -5 25 -7 8 -9
15 -4 15 5 0 5 4 -1 8 -5 4 -20 26 -31 49 -16 31 -19 45 -10 54 8 9 8 10 -1 5
-15 -8 -33 21 -33 55 0 5 -5 7 -12 3 -6 -4 -8 -3 -5 3 3 5 -1 22 -9 37 -7 16
-14 35 -14 42 0 8 -4 14 -8 14 -5 0 -14 18 -21 40 -6 22 -16 40 -22 40 -6 0
-8 4 -4 9 3 5 0 13 -6 16 -5 4 -8 14 -5 22 3 8 1 11 -4 8 -6 -3 -10 1 -10 9 0
9 -5 16 -11 16 -5 0 -8 4 -4 9 3 5 -1 16 -9 24 -8 8 -12 17 -9 20 3 3 -2 13
-11 22 -9 9 -14 21 -11 26 4 5 1 9 -5 9 -6 0 -8 5 -5 10 3 6 1 10 -4 10 -6 0
-11 9 -11 20 0 11 -5 20 -11 20 -5 0 -7 5 -4 10 3 6 1 10 -4 10 -6 0 -11 3
-10 8 2 15 -14 52 -22 52 -5 0 -9 9 -9 20 0 11 -4 20 -9 20 -5 0 -12 10 -16
23 -4 12 -8 25 -10 30 -1 4 -3 12 -4 18 0 5 -5 7 -11 4 -5 -3 -10 -1 -10 6 0
20 -43 109 -52 109 -5 0 -7 4 -4 9 3 5 -1 14 -9 21 -8 7 -15 21 -15 31 0 11
-4 19 -10 19 -5 0 -10 6 -10 14 0 8 -7 21 -15 30 -9 8 -16 18 -16 20 -2 23
-13 46 -21 46 -5 0 -7 4 -3 9 3 6 -3 14 -12 20 -10 6 -14 11 -9 11 5 0 3 7 -4
15 -7 8 -9 15 -6 15 4 0 0 7 -9 16 -9 9 -19 30 -22 46 -4 21 -8 26 -14 16 -6
-9 -9 -7 -9 9 0 12 -5 23 -10 25 -6 2 -12 13 -15 26 -2 12 -13 34 -24 48 -12
15 -18 31 -14 37 3 6 1 7 -5 3 -8 -5 -12 0 -12 14 0 11 -7 23 -16 27 -8 3 -13
11 -10 18 3 8 -2 16 -10 19 -9 3 -12 10 -9 16 3 5 2 10 -3 10 -8 0 -36 50 -32
58 1 2 -6 9 -16 16 -11 8 -14 18 -9 26 5 8 4 11 -2 7 -6 -4 -22 16 -36 46 -13
29 -32 59 -41 66 -9 7 -16 24 -16 37 0 16 -6 24 -17 24 -9 0 -14 3 -10 6 3 4
-1 13 -9 21 -8 8 -12 19 -9 24 4 5 1 9 -4 9 -6 0 -11 7 -11 17 0 9 -3 13 -7
10 -9 -10 -54 73 -46 86 4 7 0 8 -11 4 -9 -4 -14 -3 -11 2 3 5 1 12 -5 16 -6
4 -8 11 -5 16 4 5 -1 9 -10 9 -9 0 -14 4 -10 9 3 5 -2 17 -11 25 -8 9 -12 16
-8 16 4 0 -3 8 -14 19 -12 10 -19 21 -15 24 3 4 -2 9 -11 13 -9 3 -13 10 -10
16 3 5 -3 17 -15 27 -11 10 -18 21 -14 25 3 3 1 6 -5 6 -7 0 -12 7 -12 15 0 8
-4 15 -10 15 -5 0 -10 7 -10 15 0 8 -4 15 -10 15 -5 0 -10 7 -10 15 0 8 -4 15
-10 15 -5 0 -10 7 -10 15 0 8 -4 15 -10 15 -5 0 -10 9 -10 20 0 11 -7 20 -15
20 -9 0 -12 6 -8 17 4 11 3 14 -5 9 -7 -4 -12 -1 -12 8 0 9 -4 16 -10 16 -5 0
-10 7 -10 15 0 8 -4 15 -10 15 -5 0 -10 7 -10 15 0 8 -4 15 -10 15 -5 0 -10 6
-10 13 0 7 -9 19 -19 27 -11 7 -18 17 -15 22 3 4 1 8 -5 8 -10 0 -27 39 -23
53 1 5 -2 6 -8 2 -5 -3 -10 1 -10 10 0 9 -4 13 -10 10 -5 -3 -10 3 -10 15 0
12 -4 18 -10 15 -5 -3 -10 1 -10 9 0 9 -4 16 -10 16 -5 0 -9 3 -7 8 2 7 -9 22
-45 62 -9 10 -14 21 -11 24 3 3 -2 8 -11 12 -9 3 -13 10 -10 15 3 5 0 9 -7 9
-7 0 -9 3 -6 6 3 4 -7 19 -24 35 -16 15 -30 30 -29 33 1 21 -1 26 -10 21 -5
-3 -10 -1 -10 5 0 13 -38 68 -62 91 -10 9 -15 19 -11 22 3 4 -2 9 -11 13 -9 3
-16 11 -16 18 0 6 -9 18 -19 26 -11 7 -18 17 -16 21 3 4 -2 9 -10 13 -8 3 -15
11 -15 18 0 8 -9 20 -20 28 -11 8 -20 20 -20 27 0 6 -6 16 -14 20 -7 4 -18 18
-25 31 -7 12 -17 20 -23 16 -6 -4 -8 -3 -4 4 3 6 -7 25 -24 43 -16 19 -30 38
-30 44 0 6 -9 16 -20 23 -11 7 -20 19 -20 26 0 8 -9 17 -20 21 -11 3 -19 9
-19 13 3 20 -2 32 -11 27 -5 -3 -10 1 -10 9 0 9 -4 16 -10 16 -5 0 -10 8 -10
18 0 14 -2 15 -10 2 -8 -13 -10 -12 -11 5 -1 11 0 24 1 30 1 5 -1 7 -5 3 -7
-7 -35 15 -35 27 0 3 -13 20 -30 38 -16 18 -30 35 -30 39 0 5 -18 27 -40 49
-22 23 -40 45 -40 50 0 5 -7 9 -16 9 -8 0 -12 5 -9 10 3 6 1 10 -4 10 -6 0
-11 5 -11 10 0 6 -18 30 -40 52 -22 23 -40 48 -40 56 0 7 -4 10 -10 7 -5 -3
-10 -1 -10 5 0 5 -21 33 -47 61 -103 110 -113 121 -113 131 0 5 -4 6 -10 3 -9
-6 -14 8 -11 28 1 5 -2 7 -6 4 -10 -5 -43 29 -36 37 4 3 -2 6 -12 6 -10 0 -16
3 -13 6 4 3 -20 32 -52 64 -33 32 -56 60 -53 64 4 3 -2 6 -12 6 -10 0 -16 2
-13 5 3 3 -21 32 -52 65 -32 32 -56 61 -53 63 2 3 -5 8 -16 12 -12 3 -21 11
-21 16 0 12 -25 39 -37 39 -4 0 -16 14 -25 30 -9 17 -25 30 -34 30 -10 0 -15
3 -12 6 4 3 -38 50 -93 104 -54 55 -99 105 -99 111 0 6 -7 8 -17 5 -10 -4 -14
-4 -11 0 8 7 -68 84 -83 84 -6 0 -8 4 -5 9 7 10 -18 33 -27 26 -4 -3 -5 -2 -3
1 7 9 -17 33 -26 27 -5 -2 -8 2 -8 9 0 7 -25 35 -55 62 -30 27 -52 53 -49 57
3 5 -2 6 -10 3 -9 -3 -16 -1 -16 5 0 6 -8 11 -17 11 -15 0 -16 2 -3 10 9 6 10
10 3 10 -6 0 -30 18 -53 40 -23 22 -46 40 -51 40 -5 0 -9 8 -9 17 0 9 -3 14
-6 10 -4 -3 -29 16 -58 43 -28 27 -60 59 -72 70 -12 11 -26 20 -32 20 -6 0
-13 9 -17 20 -3 11 -10 19 -14 17 -4 -1 -22 12 -38 30 -17 18 -33 29 -37 26
-3 -3 -6 1 -6 10 0 9 -6 17 -12 17 -7 0 -24 12 -37 25 -12 14 -28 22 -34 18
-6 -4 -8 0 -4 10 4 10 2 16 -6 14 -7 -1 -11 5 -9 13 2 8 1 12 -3 8 -4 -4 -13
-2 -21 5 -7 7 -28 23 -45 37 -17 14 -42 35 -55 48 -13 12 -28 22 -33 22 -6 0
-15 9 -21 20 -6 11 -15 18 -20 15 -5 -3 -12 4 -15 16 -4 11 -9 18 -12 15 -8
-8 -32 18 -25 28 3 5 0 6 -5 3 -6 -4 -30 12 -54 36 -23 23 -39 36 -35 30 4 -7
2 -13 -3 -13 -6 0 -11 5 -11 11 0 6 -7 17 -15 25 -8 9 -15 13 -15 10 0 -3 -8
2 -18 12 -11 9 -17 21 -14 26 3 5 0 6 -5 3 -6 -4 -21 2 -33 13 -13 11 -27 20
-32 20 -4 0 -8 8 -8 18 0 14 -2 15 -10 2 -9 -13 -10 -13 -10 0 0 9 -10 22 -21
30 -12 8 -27 21 -35 28 -7 6 -15 12 -18 12 -6 0 -36 24 -61 47 -7 7 -15 9 -19
6 -3 -4 -6 1 -6 9 0 9 -13 21 -29 28 -16 6 -32 19 -35 27 -4 9 -13 13 -22 9
-8 -3 -12 -2 -9 4 3 5 -5 14 -17 21 -13 7 -30 20 -39 30 -9 10 -19 16 -22 12
-4 -3 -9 2 -13 11 -3 9 -12 16 -20 16 -8 0 -14 5 -14 10 0 6 -6 10 -13 10 -7
0 -18 9 -25 20 -7 12 -17 18 -21 15 -5 -2 -11 2 -15 10 -3 8 -11 15 -18 15 -7
0 -26 13 -43 28 -16 16 -34 30 -40 31 -5 2 -9 7 -8 11 2 5 -6 7 -17 5 -12 -2
-18 0 -15 6 4 5 -1 9 -9 9 -8 0 -18 5 -22 12 -5 7 -2 8 7 3 8 -5 11 -4 6 1 -5
5 -13 10 -18 10 -5 1 -14 2 -20 3 -5 0 -7 6 -4 11 3 6 1 10 -6 10 -7 0 -24 10
-37 23 -14 12 -22 15 -18 7 4 -8 -1 -5 -12 8 -11 12 -25 22 -31 22 -6 0 -11 5
-11 10 0 6 -6 9 -12 8 -7 -2 -12 3 -10 10 1 8 -2 11 -6 8 -5 -3 -21 5 -36 19
-14 13 -26 20 -26 14 0 -5 -6 -4 -14 3 -8 7 -12 16 -9 21 2 4 -5 7 -15 7 -11
0 -23 7 -26 16 -3 8 -10 12 -16 9 -5 -3 -10 -1 -10 4 0 6 -7 11 -16 11 -9 0
-12 5 -8 12 5 8 2 9 -9 5 -11 -4 -17 -1 -17 8 0 8 -9 15 -20 15 -11 0 -20 4
-20 8 0 9 -62 47 -72 44 -5 -1 -8 5 -8 13 0 8 -7 15 -16 15 -9 0 -34 14 -55
31 -21 17 -39 27 -39 22 0 -4 -5 0 -11 10 -5 9 -14 17 -20 17 -11 0 -72 41
-77 53 -2 4 -8 5 -13 1 -5 -3 -9 0 -9 7 0 7 -3 10 -6 6 -3 -3 -15 3 -27 14
-11 10 -27 19 -34 19 -7 0 -13 5 -13 10 0 6 -6 10 -14 10 -7 0 -19 7 -26 15
-7 9 -19 14 -27 11 -8 -3 -11 -2 -8 3 3 5 -4 12 -15 16 -11 4 -17 11 -14 17 5
7 2 8 -6 3 -7 -4 -15 -3 -19 3 -3 6 -13 12 -21 14 -8 2 -23 11 -34 21 -11 9
-26 17 -33 17 -7 0 -13 5 -13 10 0 6 -7 10 -15 10 -8 0 -15 5 -15 10 0 6 -8
10 -17 10 -23 1 -55 25 -45 34 4 4 3 7 -3 6 -23 -5 -46 1 -40 10 3 6 -3 10
-14 10 -12 0 -21 5 -21 10 0 6 -7 10 -15 10 -8 0 -15 5 -15 10 0 6 -3 9 -7 8
-5 -2 -26 8 -48 21 -22 14 -43 24 -47 23 -5 -1 -8 2 -8 8 0 5 -7 10 -15 10 -8
0 -15 5 -15 10 0 6 -8 10 -19 10 -10 0 -26 10 -35 23 -9 12 -14 16 -11 10 3
-7 1 -13 -4 -13 -6 0 -11 5 -11 10 0 6 -5 10 -12 10 -6 0 -23 10 -37 23 -20
17 -22 18 -11 2 15 -19 15 -19 -11 0 -15 11 -25 23 -22 28 2 4 1 7 -4 6 -25
-4 -44 2 -37 14 4 6 4 9 -1 5 -8 -8 -66 18 -76 34 -3 5 -12 10 -20 12 -8 1
-25 8 -39 16 -39 23 -105 52 -108 48 -2 -2 -8 5 -13 15 -6 9 -21 17 -35 17
-14 0 -22 4 -19 10 3 6 -3 10 -14 10 -12 0 -21 5 -21 10 0 6 -9 10 -20 10 -10
0 -23 6 -27 14 -4 8 -11 15 -15 16 -34 7 -48 14 -48 21 0 4 -9 6 -20 4 -13 -2
-20 2 -20 11 0 8 -4 12 -10 9 -5 -3 -10 -2 -10 4 0 5 -8 8 -18 6 -11 -2 -25 5
-32 15 -7 10 -18 16 -25 14 -6 -3 -18 2 -25 11 -7 8 -20 15 -29 15 -9 0 -27 9
-41 20 -14 11 -32 20 -40 20 -8 0 -24 7 -34 15 -10 8 -23 12 -27 9 -5 -3 -9 0
-9 5 0 6 -9 11 -19 11 -11 0 -21 5 -23 11 -2 6 -15 12 -30 12 -14 1 -24 5 -22
8 2 3 -15 12 -36 19 -22 7 -40 17 -40 22 0 5 -4 6 -10 3 -5 -3 -10 -1 -10 5 0
7 -7 10 -15 6 -8 -3 -15 -1 -15 4 0 6 -3 9 -7 9 -22 -4 -33 2 -27 14 4 6 4 9
-1 5 -4 -4 -15 -2 -23 5 -12 9 -14 9 -8 0 4 -7 -6 -5 -23 5 -17 9 -31 21 -31
26 0 5 -8 2 -17 -5 -11 -10 -14 -10 -9 -1 6 11 -5 17 -26 13 -5 0 -8 3 -8 8 0
5 -10 12 -22 16 -28 9 -24 8 -70 25 -21 8 -38 17 -38 20 0 3 -10 7 -22 7 -13
1 -24 7 -26 13 -2 5 -8 8 -13 4 -5 -3 -9 0 -9 6 0 6 -5 8 -12 4 -6 -4 -16 -1
-22 7 -6 8 -15 14 -21 15 -24 1 -65 17 -65 25 0 5 -9 9 -20 9 -18 0 -70 19
-80 30 -6 6 -29 12 -47 13 -7 0 -13 4 -13 9 0 4 -7 8 -15 8 -8 0 -15 6 -15 13
0 9 -3 8 -9 -2 -6 -9 -10 -10 -12 -2 -3 7 -14 13 -27 14 -12 0 -22 5 -22 9 0
4 -9 8 -19 8 -11 0 -27 7 -36 16 -9 9 -19 14 -22 10 -3 -3 -12 -1 -19 5 -8 6
-20 9 -28 6 -8 -3 -17 1 -20 9 -3 8 -17 14 -31 14 -15 0 -23 4 -20 10 3 5 0 7
-8 4 -8 -3 -22 2 -31 11 -9 9 -16 12 -16 6 0 -7 -17 -3 -40 9 -21 11 -46 20
-55 20 -8 0 -15 5 -15 11 0 5 -4 7 -10 4 -5 -3 -10 0 -10 7 0 9 -3 9 -10 -2
-7 -11 -10 -11 -10 -2 0 7 -4 10 -10 7 -5 -3 -10 -1 -10 5 0 6 -4 8 -10 5 -5
-3 -10 -2 -10 4 0 6 -7 8 -15 5 -8 -4 -15 -1 -15 7 0 7 -3 9 -7 6 -3 -4 -13
-1 -21 6 -13 10 -14 9 -7 -3 7 -11 2 -10 -19 3 -15 10 -34 16 -41 13 -8 -3
-15 0 -17 6 -4 11 -19 16 -60 20 -9 1 -15 5 -12 9 2 4 -3 9 -11 13 -8 3 -15 0
-15 -6 0 -6 -10 -3 -22 8 -13 12 -18 13 -13 4 6 -11 3 -10 -12 3 -11 9 -23 14
-26 11 -4 -4 -13 -2 -20 4 -8 7 -17 9 -20 5 -4 -3 -7 -1 -7 6 0 7 -4 10 -9 6
-5 -3 -12 -1 -16 5 -4 6 -10 8 -15 5 -5 -3 -11 -1 -15 5 -4 6 -11 8 -16 4 -5
-3 -16 0 -24 6 -8 7 -15 9 -15 5 0 -5 -10 0 -22 11 -12 10 -18 13 -14 7 4 -7
2 -13 -3 -13 -6 0 -11 5 -11 11 0 6 -9 9 -20 6 -14 -4 -20 0 -20 11 0 15 -2
15 -10 2 -6 -10 -10 -11 -10 -2 0 7 -13 12 -31 12 -16 0 -28 4 -25 8 2 4 -10
9 -27 10 -18 2 -33 7 -35 12 -2 6 -8 10 -13 10 -6 0 -7 -6 -3 -12 4 -7 -5 -2
-21 12 -16 14 -25 19 -21 13 8 -14 -6 -18 -18 -6 -6 7 -29 13 -53 15 -7 1 -13
5 -13 10 0 4 -5 8 -11 8 -5 0 -7 -6 -3 -12 4 -7 -1 -6 -12 3 -10 9 -25 14 -31
12 -7 -3 -13 0 -13 7 0 6 -4 9 -9 5 -5 -3 -13 0 -17 6 -4 8 -9 7 -15 -2 -7
-11 -9 -11 -9 -1 0 7 -4 10 -10 7 -5 -3 -10 -2 -10 3 0 5 -6 9 -12 10 -20 1
-42 7 -53 13 -5 3 -23 6 -38 7 -16 1 -35 9 -43 17 -18 18 -28 20 -18 3 5 -8 2
-9 -10 -5 -10 4 -20 7 -22 7 -3 0 -2 5 2 11 4 8 0 8 -15 0 -17 -10 -22 -9 -28
4 -5 13 -7 14 -14 3 -6 -9 -9 -9 -9 -1 0 6 -9 10 -20 8 -11 -2 -20 -1 -20 3 0
4 -12 9 -27 10 -16 1 -30 7 -31 12 -2 6 -8 7 -13 4 -6 -3 -15 -1 -22 4 -7 5
-19 9 -27 9 -31 1 -72 12 -88 25 -12 10 -14 10 -8 1 4 -7 2 -13 -3 -13 -6 0
-11 4 -11 9 0 5 -13 8 -29 7 -17 -1 -27 2 -24 8 4 5 -3 7 -15 4 -12 -4 -22 -3
-22 1 0 8 -8 9 -55 12 -14 1 -25 5 -25 10 0 5 -3 8 -7 8 -5 -1 -21 -1 -36 0
-20 1 -26 5 -21 14 6 9 5 9 -7 0 -10 -8 -19 -9 -25 -3 -5 5 -24 10 -42 12 -17
1 -32 6 -32 11 0 5 -8 3 -17 -4 -11 -10 -14 -10 -9 -1 7 12 4 14 -36 15 -13 1
-26 6 -30 11 -5 7 -8 6 -8 -2 0 -11 -3 -10 -14 1 -9 8 -28 13 -45 11 -19 -2
-31 1 -31 8 0 6 -3 8 -7 5 -3 -4 -12 -2 -20 4 -10 9 -13 8 -13 -1 0 -10 -3
-10 -15 0 -9 7 -18 10 -22 7 -3 -4 -12 -2 -20 4 -7 6 -13 8 -13 3 0 -5 -5 -2
-10 6 -7 11 -10 11 -10 2 0 -9 -5 -10 -19 -3 -10 6 -21 8 -24 4 -4 -3 -13 0
-22 7 -8 7 -21 10 -30 7 -8 -4 -21 1 -30 9 -9 9 -15 11 -15 4 0 -6 -4 -9 -8
-6 -9 5 -68 18 -89 19 -7 0 -13 5 -13 11 0 6 -5 4 -10 -4 -7 -12 -10 -12 -10
-1 0 7 -6 11 -14 8 -8 -3 -17 -3 -21 1 -3 3 -18 7 -33 8 -15 1 -27 2 -27 4 0
1 -13 4 -30 6 -16 3 -36 11 -44 17 -12 10 -14 9 -8 -7 7 -18 6 -18 -19 -1 -17
11 -24 12 -18 4 6 -11 5 -12 -7 -3 -8 6 -22 12 -31 13 -10 1 -29 2 -43 3 -14
1 -25 7 -25 13 0 5 -5 3 -10 -5 -6 -10 -10 -11 -10 -2 0 6 -5 12 -11 12 -5 0
-7 -6 -3 -12 6 -10 4 -10 -8 0 -9 7 -32 13 -51 14 -20 1 -34 4 -32 8 2 3 -15
7 -38 8 -23 1 -55 4 -72 6 -16 3 -59 8 -95 12 -36 4 -68 12 -72 18 -5 8 -8 8
-8 0 0 -11 -28 -12 -45 -2 -6 3 -24 6 -40 6 -41 1 -59 5 -67 17 -5 6 -8 5 -8
-2 0 -9 -7 -10 -22 -4 -13 5 -41 8 -64 8 -22 0 -44 2 -50 5 -5 3 -19 4 -31 3
-13 -1 -23 3 -23 9 0 6 -4 5 -9 -2 -6 -11 -11 -10 -25 3 -9 9 -16 13 -16 8 0
-7 -53 -9 -70 -3 -3 1 -17 2 -32 2 -16 1 -28 5 -28 9 0 11 -23 7 -32 -6 -5 -6
-8 -6 -8 1 0 7 -17 12 -37 13 -21 0 -47 1 -58 1 -10 1 -25 5 -31 11 -8 7 -14
7 -19 -1 -4 -7 -13 -7 -27 1 -14 8 -18 8 -14 0 9 -14 -26 -1 -36 13 -5 8 -8 7
-8 -1 0 -14 -51 -7 -61 9 -4 7 -8 5 -11 -3 -5 -12 -9 -12 -28 -1 -12 8 -19 9
-15 3 7 -13 -2 -13 -30 -2 -11 5 -25 4 -32 -1 -7 -6 -13 -6 -13 -1 0 5 -37 9
-82 10 -46 1 -85 2 -88 3 -3 1 -13 1 -23 0 -10 -1 -24 4 -32 10 -7 6 -16 7
-19 2 -6 -11 -36 -9 -56 3 -9 5 -15 4 -18 -3 -2 -7 -9 -9 -15 -5 -17 11 -31
10 -39 -2 -5 -7 -8 -7 -8 0 0 7 -29 11 -74 10 -41 0 -73 2 -71 5 2 3 -5 6 -16
6 -10 0 -19 -4 -19 -8 0 -4 -11 -3 -25 2 -18 7 -25 6 -25 -3 0 -8 -3 -8 -8 -2
-4 6 -17 10 -29 9 -13 -1 -23 4 -23 10 0 8 -2 8 -8 -1 -9 -14 -122 -12 -122 2
0 7 -3 7 -8 0 -9 -13 -52 -15 -52 -3 0 5 -6 6 -12 1 -19 -11 -108 -10 -108 2
0 7 -3 7 -8 0 -8 -11 -112 -14 -112 -3 0 4 -7 5 -16 1 -25 -9 -88 -10 -106 -1
-10 5 -18 5 -18 1z m9360 -28327 c0 -2 -7 -7 -16 -10 -8 -3 -12 -2 -9 4 6 10
25 14 25 6z"/>
</g>
</svg>
